<svg width="24" height="24" viewBox="0 0 24 24" fill="none" xmlns="http://www.w3.org/2000/svg">
<path d="M12.1987 8.59872C12.4324 8.59827 12.6588 8.67964 12.8387 8.82872L18.8387 13.8287C19.0429 13.9985 19.1713 14.2424 19.1957 14.5068C19.2201 14.7712 19.1384 15.0345 18.9687 15.2387C18.799 15.4429 18.555 15.5714 18.2906 15.5957C18.0262 15.6201 17.7629 15.5385 17.5587 15.3687L12.1987 10.8887L6.8387 15.2087C6.73641 15.2918 6.61871 15.3538 6.49238 15.3913C6.36604 15.4287 6.23355 15.4408 6.10252 15.4268C5.97149 15.4129 5.84451 15.3732 5.72887 15.31C5.61323 15.2469 5.51122 15.1615 5.4287 15.0587C5.33712 14.9559 5.26776 14.8353 5.22497 14.7044C5.18217 14.5735 5.16687 14.4352 5.18001 14.2982C5.19316 14.1611 5.23446 14.0282 5.30135 13.9079C5.36823 13.7875 5.45925 13.6823 5.5687 13.5987L11.5687 8.76872C11.7538 8.64321 11.9756 8.58335 12.1987 8.59872Z" fill="#337BAE"/>
</svg>
