<svg width="12" height="7" viewBox="0 0 12 7" fill="none" xmlns="http://www.w3.org/2000/svg">
<path d="M5.99996 6.00005C5.82472 6.0004 5.6549 5.93937 5.51996 5.82755L1.01996 2.07755C0.8668 1.95025 0.770482 1.76732 0.752197 1.569C0.733912 1.37068 0.795159 1.17322 0.922463 1.02005C1.04977 0.866891 1.2327 0.770573 1.43102 0.752289C1.62934 0.734004 1.8268 0.79525 1.97996 0.922554L5.99996 4.28255L10.02 1.04255C10.0967 0.980255 10.1849 0.933731 10.2797 0.905657C10.3745 0.877584 10.4738 0.868513 10.5721 0.878968C10.6704 0.889422 10.7656 0.919195 10.8523 0.966575C10.9391 1.01396 11.0156 1.07801 11.0775 1.15505C11.1461 1.23217 11.1982 1.32264 11.2303 1.4208C11.2624 1.51895 11.2738 1.62268 11.264 1.72547C11.2541 1.82827 11.2231 1.92793 11.173 2.01819C11.1228 2.10846 11.0545 2.1874 10.9725 2.25005L6.47246 5.87255C6.33365 5.96669 6.16729 6.01158 5.99996 6.00005Z" fill="#7E7E7E"/>
</svg>
