<svg width="22" height="22" viewBox="0 0 22 22" fill="none" xmlns="http://www.w3.org/2000/svg">
<path fill-rule="evenodd" clip-rule="evenodd" d="M20.625 11.0001C20.625 11.1824 20.5526 11.3573 20.4236 11.4862C20.2947 11.6152 20.1198 11.6876 19.9375 11.6876L3.72212 11.6876L8.04925 16.0134C8.17834 16.1425 8.25087 16.3175 8.25087 16.5001C8.25087 16.6827 8.17834 16.8578 8.04925 16.9869C7.92015 17.116 7.74507 17.1885 7.5625 17.1885C7.37993 17.1885 7.20484 17.116 7.07575 16.9869L1.57575 11.4869C1.51172 11.423 1.46093 11.3471 1.42627 11.2636C1.39161 11.1801 1.37377 11.0905 1.37377 11.0001C1.37377 10.9097 1.39161 10.8201 1.42627 10.7366C1.46093 10.6531 1.51172 10.5772 1.57575 10.5134L7.07575 5.01336C7.20484 4.88426 7.37993 4.81174 7.5625 4.81174C7.74507 4.81174 7.92015 4.88426 8.04925 5.01336C8.17834 5.14245 8.25087 5.31754 8.25087 5.50011C8.25087 5.68268 8.17834 5.85777 8.04925 5.98686L3.72212 10.3126L19.9375 10.3126C20.1198 10.3126 20.2947 10.385 20.4236 10.514C20.5526 10.6429 20.625 10.8178 20.625 11.0001Z" fill="black"/>
</svg>
