<svg width="22" height="29" viewBox="0 0 22 29" fill="none" xmlns="http://www.w3.org/2000/svg">
<path d="M18.7309 20.1068C18.6768 24.4919 14.4149 25.2793 14.1745 25.3199C14.1684 25.3214 14.1639 25.3214 14.1639 25.3214C14.1639 25.3214 14.1669 25.4912 14.173 25.7903V25.8023C14.185 26.5808 14.1639 24.7342 14.1639 26.4564V26.5C14.1639 27.2123 14.0347 27.8961 13.7973 28.5257H3.01787C2.82101 28.0043 2.69928 27.4437 2.66171 26.8592L1.89229 17.3177L1.82918 16.2973L1.82166 16.171L1.79912 15.8314L1.66988 13.7636L1.66087 13.6253L1.59925 12.6485L1.47753 10.719C1.47001 10.6408 1.464 10.5612 1.45949 10.483C1.42944 9.96008 1.44747 9.44614 1.51059 8.94421C1.53914 8.70978 1.57821 8.47835 1.6263 8.24993C1.88929 7.01315 2.42878 5.86954 3.18017 4.89724C3.24479 4.81309 3.31091 4.72893 3.38004 4.64628C3.47471 4.53057 3.5739 4.41786 3.67759 4.30966C3.91352 4.05569 4.16449 3.81675 4.43048 3.59284C4.4425 3.58382 4.45452 3.5733 4.46654 3.56428C4.51764 3.5207 4.56873 3.48013 4.61983 3.43955C5.91672 2.41316 7.52919 1.76096 9.30547 1.65576H9.51285C9.57146 1.65576 9.62857 1.65727 9.68567 1.65727C9.95467 1.66328 10.2207 1.67981 10.4836 1.71136C12.9257 1.98487 15.0731 3.27725 16.4737 5.16924C16.5338 5.2519 16.5939 5.33455 16.6525 5.4187C17.2672 6.31436 17.718 7.33324 17.9614 8.43627C18.0456 8.81798 18.1057 9.2102 18.1388 9.61144C18.4574 13.6058 18.7564 17.9714 18.7309 20.1068Z" fill="#E2BB83"/>
<path d="M14.1747 25.2722C12.0873 25.3113 10.0345 24.7297 8.2793 23.5996C8.2793 23.5996 9.67387 26.8681 14.1687 26.4384L14.1747 25.2722Z" fill="#D19E6B"/>
<path d="M12.8539 16.8698C13.2191 16.7586 13.5963 16.691 13.9765 16.6685C14.1568 16.6685 14.3191 16.6144 14.3522 16.4942C14.3717 16.3048 14.3296 16.1125 14.2319 15.9486C14.0681 15.5189 13.8938 15.071 13.6864 14.6022C13.2025 13.4601 12.8088 12.2804 12.5098 11.0767C13.0883 12.1752 13.5767 13.3203 13.9705 14.4985C14.1448 14.9718 14.3131 15.4197 14.4724 15.8555C14.5821 16.0689 14.6152 16.3123 14.5656 16.5468C14.5115 16.673 14.4033 16.7692 14.271 16.8082C14.1733 16.8323 14.0727 16.8458 13.972 16.8458C13.6008 16.9059 13.2251 16.9134 12.8539 16.8698Z" fill="#263238"/>
<path d="M10.5169 9.01973C10.4463 9.20457 9.75348 9.11741 8.94198 9.21659C8.13049 9.31427 7.47077 9.53819 7.36257 9.36987C7.31899 9.28872 7.4332 9.10839 7.69468 8.92806C8.04633 8.69813 8.44757 8.55838 8.86685 8.5193C9.28311 8.46821 9.70539 8.5163 10.0976 8.66057C10.3982 8.77928 10.5454 8.92656 10.5169 9.01973Z" fill="#263238"/>
<path d="M16.8908 9.5965C16.7706 9.75429 16.2972 9.5965 15.7187 9.5965C15.1401 9.5965 14.6622 9.70019 14.5465 9.53639C14.4323 9.37258 14.5735 9.29594 14.7869 9.15017C15.071 8.96834 15.4031 8.87968 15.7397 8.8947C16.0778 8.89771 16.4054 9.00891 16.6774 9.21029C16.8803 9.36207 16.9464 9.52136 16.8908 9.5965Z" fill="#263238"/>
<path d="M6.37646 5.7782C5.63709 6.34024 5.14719 7.16977 5.00894 8.08797C5.00894 8.12103 5.00894 8.15409 5.00894 8.18114C4.83461 9.46751 4.86166 10.7749 4.67682 12.0598C4.55209 13.3627 3.99306 14.5875 3.0914 15.5357C2.69917 15.9009 2.00189 16.1518 1.69081 15.7206C1.58111 15.5447 1.524 15.3403 1.52701 15.1315C1.28657 12.0252 0.4375 9.26915 0.4375 6.02165C0.439003 5.13952 0.861282 4.3115 1.5766 3.79304C2.25736 3.30764 3.08539 2.80121 3.84278 3.16037C4.60018 3.51954 5.57548 4.93064 6.16457 5.53025L6.37646 5.7782Z" fill="#263238"/>
<path d="M2.99885 12.7632C2.92221 12.7301 -0.0953592 11.842 0.002321 14.9422C0.100001 18.0424 3.17317 17.291 3.17918 17.2039C3.18369 17.1167 2.99885 12.7632 2.99885 12.7632Z" fill="#E2BB83"/>
<path d="M2.19821 16.0479C2.19821 16.0479 2.14411 16.0855 2.05695 16.1351C1.92771 16.1862 1.78344 16.1862 1.6542 16.1351C1.24094 15.8916 0.991478 15.4438 1.00049 14.9629C0.983964 14.6984 1.02755 14.4339 1.12523 14.189C1.17782 13.9906 1.32359 13.8313 1.51745 13.7637C1.64368 13.7261 1.77893 13.7832 1.83904 13.9005C1.88262 13.9876 1.83904 14.0477 1.88262 14.0537C1.9262 14.0598 1.94875 13.9996 1.92019 13.8734C1.89915 13.7968 1.85257 13.7306 1.78945 13.6826C1.70079 13.6239 1.59409 13.5999 1.4904 13.6164C1.23493 13.675 1.02755 13.8629 0.944892 14.1123C0.821665 14.3813 0.767565 14.6774 0.787101 14.9734C0.772073 15.537 1.09968 16.0539 1.61513 16.2809C1.78344 16.3274 1.96377 16.2914 2.10053 16.1832C2.1922 16.1246 2.20873 16.0539 2.19821 16.0479Z" fill="#D1734A"/>
<path d="M3.75486 3.63682C2.99145 2.40605 5.07279 0.634279 6.5936 0.154894C8.1144 -0.32449 10.1236 0.416377 11.6339 0.918303C12.5927 1.23389 13.5469 1.68171 14.5493 1.63813C15.2225 1.57051 15.8807 1.4037 16.5059 1.14222C17.1295 0.877728 17.8013 0.743981 18.4775 0.749992C19.1718 0.760512 19.803 1.15724 20.1125 1.77939C20.359 2.37449 20.078 3.05675 19.4829 3.3032C19.4348 3.32274 19.3837 3.34077 19.3326 3.3543C20.066 2.95155 20.9872 3.21755 21.3899 3.9509C21.7926 4.68425 21.5267 5.60545 20.7933 6.0082C20.4717 6.18552 20.0945 6.23962 19.7353 6.15998C20.1711 5.82786 20.8249 6.37187 20.7918 6.92338C20.6671 7.4749 20.2583 7.91972 19.7188 8.08954C18.3874 8.57794 16.9207 8.55389 15.6057 8.02341C14.2758 7.57709 13.039 6.8798 11.7211 6.3884C10.4031 5.89699 8.19105 5.04191 6.8671 5.51078C5.8918 5.85341 5.23209 7.03158 4.68808 6.7701C4.16061 6.49059 3.79844 5.97664 3.71278 5.38605C3.63464 4.79997 3.65417 4.20487 3.77289 3.6263L3.75486 3.63682Z" fill="#263238"/>
<path d="M19.7211 3.26554C19.6941 3.26554 19.5633 3.49396 19.2312 3.85463C18.7578 4.35205 18.1703 4.72473 17.5211 4.94414C16.5623 5.29128 15.5073 5.2507 14.5786 4.82993C13.5327 4.35655 12.634 3.41882 11.5986 2.53069C10.6384 1.64405 9.42863 1.073 8.13324 0.895669C7.04674 0.764928 5.95873 1.14062 5.18631 1.91455C4.68739 2.44954 4.42891 3.16335 4.46648 3.8922C4.48602 4.07854 4.5311 4.26188 4.59722 4.4377C4.65132 4.55793 4.6904 4.61804 4.70091 4.61203C4.6408 4.36707 4.60173 4.11761 4.5867 3.86515C4.58971 3.1889 4.84969 2.5397 5.31705 2.0513C6.05792 1.35552 7.07229 1.02942 8.07915 1.16316C9.31743 1.36453 10.4655 1.93408 11.3747 2.79818C12.3876 3.66378 13.3148 4.62856 14.4374 5.11996C16.1355 5.8473 18.1086 5.37243 19.2913 3.95381C19.4161 3.80654 19.5243 3.64574 19.6129 3.47443C19.6775 3.33617 19.7211 3.27155 19.7211 3.26554Z" fill="#455A64"/>
<path d="M2.21318 12.6266C2.21318 12.6266 2.34993 12.5394 2.46414 12.2945C2.61292 11.9518 2.66552 11.5746 2.61743 11.2049C2.55131 10.2131 1.66918 9.14614 1.56098 7.77712C1.47983 7.14295 1.60005 6.49826 1.90361 5.93622C2.16359 5.48689 2.56633 5.13825 3.04722 4.94439C3.37332 4.81064 3.72798 4.76255 4.07662 4.80313C4.20436 4.8407 4.3366 4.86625 4.46884 4.87977C4.46884 4.87977 4.35914 4.77007 4.09766 4.68892C3.72497 4.59575 3.33275 4.61378 2.96908 4.74302C2.42207 4.92936 1.95771 5.30205 1.65565 5.79496C1.30851 6.40509 1.16725 7.10989 1.25291 7.80567C1.33406 8.48192 1.53543 9.13863 1.8465 9.74575C2.09446 10.2161 2.2778 10.718 2.39201 11.238C2.47617 11.7084 2.41305 12.1923 2.21318 12.6266Z" fill="#455A64"/>
<path d="M10.5156 17.7207C10.6238 18.4 10.9589 19.0236 11.4684 19.4865C11.9974 19.9493 12.7397 20.0816 13.3964 19.8291C13.9224 19.5346 14.3522 19.0927 14.6332 18.5593L10.5156 17.7207Z" fill="white"/>
<path d="M16.1895 12.6368C16.2045 12.9524 15.949 13.2259 15.6184 13.2484C15.2893 13.2695 15.0098 13.0321 14.9948 12.715C14.9797 12.3994 15.2352 12.1259 15.5643 12.1033C15.8964 12.0823 16.1759 12.3212 16.1895 12.6368Z" fill="#1A2E35"/>
<path d="M16.9848 12.3405C16.8841 12.3796 16.6181 11.8821 16.0351 11.6071C15.4565 11.3246 14.8869 11.4223 14.8569 11.3201C14.8403 11.2735 14.9696 11.1788 15.2206 11.1307C15.467 11.0827 15.8427 11.0992 16.2049 11.2735C16.567 11.4478 16.809 11.7258 16.9202 11.9452C17.0329 12.1677 17.0329 12.3239 16.9848 12.3405Z" fill="#1A2E35"/>
<path d="M10.293 12.7934C10.308 13.109 10.0525 13.3825 9.72194 13.4036C9.39283 13.4246 9.11331 13.1872 9.09829 12.8701C9.08326 12.5545 9.33873 12.281 9.66784 12.2584C9.99845 12.2389 10.278 12.4778 10.293 12.7934Z" fill="#1A2E35"/>
<path d="M10.1624 11.6751C10.1308 11.7788 9.57481 11.6856 9.00075 11.9802C8.42368 12.2657 8.15319 12.7767 8.05551 12.7376C8.00892 12.7226 8.01193 12.5618 8.12764 12.3348C8.24035 12.1094 8.48229 11.8224 8.84146 11.6421C9.20062 11.4617 9.5688 11.4392 9.81074 11.4858C10.0557 11.5324 10.1789 11.627 10.1624 11.6751Z" fill="#1A2E35"/>
</svg>
