<svg width="40" height="40" viewBox="0 0 40 40" fill="none" xmlns="http://www.w3.org/2000/svg">
<path fill-rule="evenodd" clip-rule="evenodd" d="M23.962 1.29953C22.8131 0.455901 21.4249 0.000976563 19.9995 0.000976562C18.5741 0.000976563 17.186 0.455901 16.037 1.29953L13.717 2.99953C13.3349 3.28034 12.8907 3.46473 12.422 3.53703L9.57453 3.97453C8.16683 4.19094 6.86481 4.85063 5.85772 5.85772C4.85063 6.86481 4.19094 8.16683 3.97453 9.57453L3.53703 12.4245C3.46473 12.8932 3.28034 13.3374 2.99953 13.7195L1.29953 16.0395C0.455901 17.1885 0.000976563 18.5766 0.000976563 20.002C0.000976562 21.4274 0.455901 22.8156 1.29953 23.9645L2.99953 26.2845C3.28203 26.667 3.46453 27.1095 3.53703 27.5795L3.97453 30.4245C4.19094 31.8322 4.85063 33.1343 5.85772 34.1413C6.86481 35.1484 8.16683 35.8081 9.57453 36.0245L12.4195 36.462C12.887 36.5345 13.332 36.717 13.7145 36.9995L16.0345 38.6995C17.1835 39.5432 18.5716 39.9981 19.997 39.9981C21.4224 39.9981 22.8106 39.5432 23.9595 38.6995L26.2795 36.9995C26.6612 36.718 27.1057 36.5336 27.5745 36.462L30.4195 36.0245C31.8281 35.8085 33.1309 35.1486 34.1385 34.141C35.1461 33.1334 35.806 31.8306 36.022 30.422L36.4595 27.577C36.532 27.1095 36.7145 26.6645 36.997 26.282L38.697 23.962C39.5407 22.8131 39.9956 21.4249 39.9956 19.9995C39.9956 18.5741 39.5407 17.186 38.697 16.037L36.997 13.717C36.7163 13.3349 36.5319 12.8906 36.4595 12.422L36.0245 9.57453C35.8081 8.16683 35.1484 6.86481 34.1413 5.85772C33.1343 4.85063 31.8322 4.19094 30.4245 3.97453L27.5795 3.53703C27.1109 3.46464 26.6667 3.28026 26.2845 2.99953L23.962 1.29953ZM18.257 4.31953C19.2945 3.55703 20.707 3.55703 21.742 4.31953L24.062 6.01953C24.932 6.65953 25.942 7.07703 27.012 7.24203L29.852 7.67703C31.127 7.87203 32.1245 8.87203 32.3195 10.1445L32.7545 12.987C32.9195 14.0545 33.337 15.0645 33.977 15.937L35.677 18.2545C36.4395 19.292 36.4395 20.7045 35.677 21.7395L33.977 24.0595C33.3376 24.9299 32.9181 25.942 32.7545 27.0095L32.3195 29.8495C32.2249 30.4701 31.9345 31.0442 31.4906 31.4881C31.0467 31.932 30.4726 32.2224 29.852 32.317L27.0095 32.752C25.942 32.9156 24.9299 33.3351 24.0595 33.9745L21.742 35.6745C20.7045 36.437 19.292 36.437 18.257 35.6745L15.937 33.9745C15.0667 33.3351 14.0546 32.9156 12.987 32.752L10.147 32.317C9.52646 32.2224 8.95235 31.932 8.50846 31.4881C8.06458 31.0442 7.77414 30.4701 7.67953 29.8495L7.24453 27.007C7.08094 25.9395 6.66151 24.9274 6.02203 24.057L4.32203 21.7395C3.95118 21.2342 3.75121 20.6238 3.75121 19.997C3.75121 19.3703 3.95118 18.7598 4.32203 18.2545L6.02203 15.9345C6.66203 15.0645 7.07953 14.0545 7.24453 12.9845L7.67953 10.1445C7.87453 8.86953 8.87453 7.87203 10.147 7.67703L12.9895 7.24203C14.0571 7.07844 15.0692 6.65901 15.9395 6.01953L18.257 4.31953ZM28.1995 16.9495C28.5307 16.5941 28.711 16.124 28.7025 15.6382C28.6939 15.1525 28.4971 14.689 28.1536 14.3455C27.8101 14.0019 27.3466 13.8052 26.8608 13.7966C26.3751 13.788 25.905 13.9683 25.5495 14.2995L17.4995 22.3495L14.4495 19.2995C14.0941 18.9683 13.624 18.788 13.1382 18.7966C12.6525 18.8052 12.189 19.0019 11.8455 19.3455C11.5019 19.689 11.3052 20.1525 11.2966 20.6382C11.288 21.124 11.4683 21.5941 11.7995 21.9495L16.1745 26.3245C16.5261 26.6757 17.0027 26.8729 17.4995 26.8729C17.9964 26.8729 18.473 26.6757 18.8245 26.3245L28.1995 16.9495Z" fill="#337BAE"/>
</svg>
