<svg width="40" height="40" viewBox="0 0 40 40" fill="none" xmlns="http://www.w3.org/2000/svg">
<path fill-rule="evenodd" clip-rule="evenodd" d="M16.037 1.29953C17.186 0.455901 18.5741 0.000976563 19.9995 0.000976562C21.4249 0.000976563 22.8131 0.455901 23.962 1.29953L26.282 2.99953C26.6645 3.28203 27.107 3.46453 27.577 3.53703L30.422 3.97453C31.8302 4.19045 33.1328 4.84992 34.1403 5.85705C35.1479 6.86419 35.808 8.16647 36.0245 9.57453L36.462 12.4195C36.5345 12.887 36.717 13.332 36.9995 13.7145L38.6995 16.0345C39.5432 17.1835 39.9981 18.5716 39.9981 19.997C39.9981 21.4224 39.5432 22.8106 38.6995 23.9595L36.9995 26.2795C36.7188 26.6617 36.5344 27.1059 36.462 27.5745L36.0245 30.4195C35.8085 31.8281 35.1486 33.1309 34.141 34.1385C33.1334 35.1461 31.8305 35.806 30.422 36.022L27.577 36.4595C27.1084 36.5319 26.6642 36.7163 26.282 36.997L23.962 38.697C22.8131 39.5407 21.4249 39.9956 19.9995 39.9956C18.5741 39.9956 17.186 39.5407 16.037 38.697L13.717 36.997C13.3349 36.7163 12.8906 36.5319 12.422 36.4595L9.57453 36.0245C8.16682 35.8081 6.86481 35.1484 5.85772 34.1413C4.85062 33.1343 4.19094 31.8322 3.97453 30.4245L3.53703 27.5795C3.46464 27.1109 3.28026 26.6667 2.99953 26.2845L1.29953 23.9645C0.455901 22.8156 0.000976562 21.4274 0.000976562 20.002C0.000976562 18.5766 0.455901 17.1885 1.29953 16.0395L2.99953 13.7195C3.28104 13.3378 3.46551 12.8934 3.53703 12.4245L3.97453 9.57453C4.19094 8.16683 4.85062 6.86481 5.85772 5.85772C6.86481 4.85063 8.16682 4.19094 9.57453 3.97453L12.4195 3.53703C12.887 3.46453 13.332 3.28203 13.7145 2.99953L16.0345 1.29953H16.037ZM21.742 4.32203C21.2367 3.95118 20.6263 3.75121 19.9995 3.75121C19.3728 3.75121 18.7623 3.95118 18.257 4.32203L15.937 6.02203C15.0667 6.66151 14.0546 7.08094 12.987 7.24453L10.147 7.67953C9.52645 7.77414 8.95235 8.06458 8.50846 8.50846C8.06458 8.95235 7.77414 9.52646 7.67953 10.147L7.24453 12.9895C7.08094 14.0571 6.66151 15.0692 6.02203 15.9395L4.32203 18.257C3.55953 19.2945 3.55953 20.707 4.32203 21.742L6.02203 24.062C6.66203 24.932 7.07953 25.942 7.24453 27.012L7.67953 29.852C7.87453 31.127 8.87453 32.1245 10.147 32.3195L12.9895 32.7545C14.057 32.9195 15.067 33.337 15.9395 33.977L18.257 35.677C19.2945 36.4395 20.707 36.4395 21.742 35.677L24.062 33.977C24.9324 33.3376 25.9445 32.9181 27.012 32.7545L29.852 32.3195C31.127 32.1245 32.1245 31.1245 32.3195 29.852L32.7545 27.0095C32.9195 25.942 33.337 24.932 33.977 24.0595L35.677 21.742C36.4395 20.7045 36.4395 19.292 35.677 18.257L33.977 15.937C33.3376 15.0667 32.9181 14.0546 32.7545 12.987L32.3195 10.147C32.2249 9.52646 31.9345 8.95235 31.4906 8.50846C31.0467 8.06458 30.4726 7.77414 29.852 7.67953L27.0095 7.24453C25.942 7.08094 24.9299 6.66151 24.0595 6.02203L21.742 4.32203ZM22.4995 27.4995C22.4995 28.1626 22.2361 28.7985 21.7673 29.2673C21.2985 29.7361 20.6626 29.9995 19.9995 29.9995C19.3365 29.9995 18.7006 29.7361 18.2318 29.2673C17.7629 28.7985 17.4995 28.1626 17.4995 27.4995C17.4995 26.8365 17.7629 26.2006 18.2318 25.7318C18.7006 25.2629 19.3365 24.9995 19.9995 24.9995C20.6626 24.9995 21.2985 25.2629 21.7673 25.7318C22.2361 26.2006 22.4995 26.8365 22.4995 27.4995ZM17.2995 15.212C17.502 14.812 17.7745 14.4645 18.1495 14.217C18.512 13.9745 19.077 13.7495 19.9995 13.7495C20.6995 13.7495 21.382 13.967 21.8445 14.312C22.0547 14.4586 22.2248 14.6555 22.3393 14.8848C22.4537 15.1141 22.5088 15.3684 22.4995 15.6245C22.4995 16.067 22.3995 16.2845 22.307 16.4195C22.1183 16.6668 21.883 16.8749 21.6145 17.032C21.4245 17.1595 21.2195 17.282 20.9695 17.4345L20.952 17.4445C20.7195 17.5845 20.442 17.7495 20.1695 17.932C19.4884 18.362 18.9002 18.9239 18.4395 19.5845C18.1702 19.9983 18.0749 20.5016 18.1744 20.9852C18.2739 21.4688 18.5601 21.8936 18.9709 22.1675C19.3817 22.4413 19.8839 22.5421 20.3686 22.448C20.8532 22.3538 21.2812 22.0723 21.5595 21.6645C21.7476 21.4175 21.9819 21.2094 22.2495 21.052C22.4629 20.9135 22.6797 20.7801 22.8995 20.652L22.9145 20.642C23.147 20.4995 23.4245 20.3345 23.697 20.1545C24.252 19.782 24.9145 19.267 25.427 18.4995C25.962 17.6995 26.2495 16.7445 26.2495 15.6245C26.2495 13.7245 25.3495 12.2545 24.0945 11.312C22.9042 10.4495 21.4695 9.98966 19.9995 9.99953C18.422 9.99953 17.1145 10.3995 16.0695 11.0945C15.037 11.7845 14.3695 12.6895 13.947 13.537C13.7295 13.9814 13.6964 14.4937 13.8549 14.9624C14.0135 15.431 14.3509 15.818 14.7935 16.039C15.2362 16.26 15.7482 16.2971 16.2181 16.1422C16.688 15.9873 17.0776 15.653 17.302 15.212H17.2995Z" fill="#337BAE"/>
</svg>
