<?xml version="1.0" encoding="UTF-8"?>
<svg xmlns="http://www.w3.org/2000/svg" xmlns:xlink="http://www.w3.org/1999/xlink" width="30pt" height="30pt" viewBox="0 0 30 30" version="1.1">
<g id="surface1">
<path style=" stroke:none;fill-rule:nonzero;fill:rgb(20%,48.235294%,68.235294%);fill-opacity:1;" d="M 22.820312 28.445312 C 22.59375 28.445312 22.371094 28.386719 22.167969 28.28125 L 15 24.511719 L 7.832031 28.28125 C 7.601562 28.402344 7.339844 28.457031 7.078125 28.4375 C 6.816406 28.417969 6.566406 28.328125 6.355469 28.171875 C 6.140625 28.019531 5.976562 27.808594 5.878906 27.566406 C 5.777344 27.324219 5.75 27.058594 5.792969 26.800781 L 7.160156 18.820312 L 1.363281 13.164062 C 1.175781 12.980469 1.042969 12.75 0.980469 12.496094 C 0.917969 12.242188 0.925781 11.972656 1.007812 11.726562 C 1.089844 11.476562 1.238281 11.253906 1.4375 11.085938 C 1.636719 10.914062 1.882812 10.804688 2.140625 10.769531 L 10.15625 9.605469 L 13.742188 2.339844 C 13.871094 2.121094 14.054688 1.941406 14.273438 1.8125 C 14.496094 1.6875 14.746094 1.621094 15 1.621094 C 15.257812 1.621094 15.507812 1.6875 15.726562 1.8125 C 15.949219 1.941406 16.132812 2.121094 16.261719 2.339844 L 19.84375 9.605469 L 27.859375 10.769531 C 28.117188 10.804688 28.363281 10.914062 28.5625 11.085938 C 28.761719 11.253906 28.914062 11.476562 28.992188 11.726562 C 29.074219 11.972656 29.085938 12.242188 29.019531 12.496094 C 28.957031 12.75 28.824219 12.980469 28.636719 13.164062 L 22.839844 18.820312 L 24.207031 26.800781 C 24.242188 27.003906 24.234375 27.210938 24.179688 27.40625 C 24.125 27.605469 24.03125 27.789062 23.898438 27.945312 C 23.765625 28.101562 23.601562 28.226562 23.414062 28.3125 C 23.230469 28.398438 23.027344 28.445312 22.824219 28.445312 Z M 22.820312 28.445312 "/>
</g>
</svg>
