<svg width="30" height="30" viewBox="0 0 30 30" fill="none" xmlns="http://www.w3.org/2000/svg">
<path d="M27.4999 12.0875C27.4209 11.8589 27.2773 11.658 27.0865 11.5094C26.8957 11.3607 26.6659 11.2706 26.4249 11.25L19.3124 10.2125L16.1249 3.75C16.0225 3.53866 15.8627 3.36043 15.6637 3.23572C15.4647 3.111 15.2347 3.04486 14.9999 3.04486C14.765 3.04486 14.535 3.111 14.336 3.23572C14.137 3.36043 13.9772 3.53866 13.8749 3.75L10.6874 10.2L3.57485 11.25C3.3435 11.2829 3.126 11.38 2.94704 11.5302C2.76807 11.6804 2.6348 11.8778 2.56235 12.1C2.49603 12.3171 2.49008 12.5481 2.54513 12.7684C2.60019 12.9886 2.71417 13.1897 2.87485 13.35L8.03735 18.35L6.78735 25.45C6.73688 25.6855 6.75554 25.9306 6.84108 26.1558C6.92662 26.381 7.0754 26.5766 7.26951 26.7192C7.46363 26.8619 7.69481 26.9454 7.93526 26.9597C8.17571 26.974 8.41517 26.9186 8.62485 26.8L14.9999 23.4625L21.3749 26.8C21.5503 26.899 21.7484 26.9507 21.9499 26.95C22.2146 26.9509 22.4729 26.8678 22.6874 26.7125C22.8813 26.5736 23.0314 26.3821 23.12 26.1606C23.2086 25.9391 23.232 25.6968 23.1874 25.4625L21.9373 18.3625L27.0999 13.3625C27.2803 13.2096 27.4137 13.0086 27.4845 12.7829C27.5553 12.5572 27.5606 12.3161 27.4999 12.0875ZM19.8124 17.0875C19.6677 17.228 19.5591 17.4014 19.496 17.593C19.4329 17.7845 19.4171 17.9885 19.4499 18.1875L20.3499 23.4375L15.6499 20.9375C15.4672 20.8471 15.2661 20.8001 15.0624 20.8001C14.8586 20.8001 14.6575 20.8471 14.4749 20.9375L9.77485 23.4375L10.6749 18.1875C10.7076 17.9885 10.6918 17.7845 10.6287 17.593C10.5656 17.4014 10.457 17.228 10.3124 17.0875L6.56235 13.3375L11.8249 12.575C12.0273 12.5468 12.2198 12.4694 12.3855 12.3496C12.5511 12.2297 12.6848 12.071 12.7749 11.8875L14.9999 7.125L17.3499 11.9C17.4399 12.0835 17.5736 12.2422 17.7392 12.3621C17.9049 12.4819 18.0974 12.5593 18.2999 12.5875L23.5624 13.35L19.8124 17.0875Z" fill="#337BAE"/>
</svg>
