<svg width="29" height="27" viewBox="0 0 29 27" fill="none" xmlns="http://www.w3.org/2000/svg">
<path d="M-0.000408173 26.9972H14.0409L14.092 26.9107L14.2336 26.6709C14.3083 26.7797 14.3844 26.8884 14.4644 26.9972H28.7993C28.9147 25.827 28.6499 24.6267 28.1609 23.5509C27.584 22.2812 26.7069 21.1621 26.1589 19.878C25.3841 18.0631 25.312 16.0307 25.4024 14.0586C25.4929 12.0878 25.7354 10.1118 25.5466 8.14752C25.3959 6.58032 24.9344 4.98952 24.0153 3.73288C24.0153 3.73157 24.014 3.73157 24.014 3.73157C23.7807 3.41315 23.5184 3.11569 23.2248 2.84576L21.2766 2.69375C21.2752 2.69375 21.2752 2.69375 21.2752 2.69375L20.4755 2.63086L20.4493 2.62824H20.448L20.2408 2.61251L19.2156 2.53258L18.7961 2.49982C18.7961 2.49982 18.7961 2.49982 18.7947 2.49982L13.3172 2.07264L13.2097 2.06478L12.5476 2.01367C10.7436 2.6741 9.27655 3.96612 8.16216 5.54643L8.16085 5.54774C7.42405 6.59211 6.84194 7.76096 6.41847 8.95733C5.35259 11.9633 5.12054 15.1868 4.6774 18.3448C4.49779 19.6264 4.23558 20.9983 3.30474 21.8999C2.65708 22.5275 1.72886 22.8761 1.25164 23.6427C0.669537 24.5796 0.92388 25.8991 0.229025 26.7574C0.163473 26.8465 0.0848103 26.9251 -0.000408173 26.9972Z" fill="#1A2E35"/>
<path d="M23.3281 2.77126C21.6762 0.82012 20.1606 0.333973 18.392 0.100727C15.7096 -0.253073 12.7598 0.311696 10.6529 2.00863C8.71914 3.56666 7.70701 6.05636 7.492 8.52903C7.41596 9.40174 7.70832 10.226 7.98233 11.058C8.25634 11.8901 9.25142 12.924 10.042 13.3027C10.8325 13.6814 11.1472 13.4075 11.7817 12.8048C12.1698 12.4352 12.3783 11.9216 12.5841 11.4276C13.4494 9.33622 14.451 7.25928 15.9771 5.58725C17.5031 3.91522 19.6297 2.67823 21.8938 2.66381L23.3281 2.77126Z" fill="#FF5053"/>
<path d="M24.5615 7.5592C24.9587 5.8911 24.4815 4.03955 23.3278 2.7698C22.4585 1.81323 21.2616 1.20259 20.0187 0.843552C18.351 0.361335 16.509 0.316783 14.9174 1.00604C13.3245 1.6966 12.0383 3.1996 11.8784 4.92667C11.8063 5.71158 11.9557 6.52663 11.7119 7.27485C11.6057 7.59982 11.4248 7.93659 11.5218 8.26549C11.6109 8.56557 11.9217 8.76081 12.2324 8.79488C12.5444 8.82895 12.8551 8.72937 13.1422 8.60357C14.1203 8.17508 14.9279 7.44127 15.7158 6.72057L24.5615 7.5592Z" fill="#1A2E35"/>
<path d="M11.4782 6.73268L11.5372 7.79015L11.57 8.38113V8.38244L11.7968 12.4603L11.8073 12.6634V12.6647L11.8138 12.7722L12.0328 16.6994L12.4012 23.3128C12.4641 24.445 12.8994 25.5247 13.6388 26.3856L14.0911 26.9137L14.1658 27.0002H20.4313C20.5349 26.8456 20.628 26.6805 20.7093 26.5049C20.7892 26.3332 20.8443 26.1825 20.864 26.062C20.8823 25.9113 20.9164 25.8117 20.9177 25.6846C21.0711 24.3899 20.9256 23.1674 20.9256 23.1674C20.9256 22.2789 20.923 21.7063 20.9217 21.3931L20.9204 21.0943C20.9204 21.0943 24.038 20.5414 24.6398 16.4609C24.9387 14.4311 24.7997 11.1119 24.5978 8.39947C24.5769 8.1243 24.5375 7.84126 24.4812 7.55691C24.0577 5.4459 22.6496 3.25627 20.6699 3.24316C20.649 3.24316 20.6267 3.24316 20.6057 3.24447C20.5716 3.24447 20.5388 3.24578 20.5048 3.24841C20.4471 3.25234 20.3894 3.25627 20.3304 3.26282L20.101 3.3231L19.9449 3.36503L18.0164 3.87476L12.7447 5.26507C12.392 5.307 12.0826 5.47211 11.8584 5.71583C11.6119 5.98315 11.4664 6.3435 11.4782 6.73268Z" fill="#EFCA9A"/>
<path d="M23.5502 11.4435C23.5633 11.7187 23.3405 11.9572 23.052 11.9768C22.7649 11.9952 22.5211 11.7881 22.5079 11.5117C22.4948 11.2365 22.7177 10.998 23.0048 10.9783C23.2933 10.9587 23.5371 11.167 23.5502 11.4435Z" fill="#1A2E35"/>
<path d="M24.2449 11.1011C24.157 11.1351 23.925 10.7014 23.4163 10.4616C22.9115 10.2153 22.4147 10.3004 22.3884 10.2113C22.374 10.1707 22.4868 10.0881 22.7057 10.0462C22.9207 10.0043 23.2485 10.0187 23.5644 10.1707C23.8804 10.3227 24.0915 10.5651 24.1885 10.7564C24.2868 10.9504 24.2868 11.0867 24.2449 11.1011Z" fill="#1A2E35"/>
<path d="M18.4037 11.5797C18.4169 11.8549 18.194 12.0934 17.9055 12.1131C17.6184 12.1314 17.3746 11.9244 17.3615 11.6479C17.3484 11.3727 17.5712 11.1342 17.8584 11.1146C18.1481 11.0949 18.3919 11.3033 18.4037 11.5797Z" fill="#1A2E35"/>
<path d="M18.2917 10.6033C18.2642 10.6937 17.7791 10.6125 17.2783 10.8693C16.7748 11.1183 16.5388 11.5638 16.4536 11.5297C16.413 11.5166 16.4156 11.3764 16.5165 11.1785C16.6149 10.982 16.8259 10.7317 17.1393 10.5745C17.4526 10.4172 17.7738 10.3976 17.9849 10.4382C18.1973 10.4788 18.3061 10.5614 18.2917 10.6033Z" fill="#1A2E35"/>
<path d="M20.4569 14.4427C20.4542 14.4113 20.803 14.347 21.368 14.2671C21.5109 14.2501 21.6473 14.2212 21.6696 14.123C21.7023 14.0181 21.6407 13.8648 21.5686 13.6984C21.4296 13.3525 21.2841 12.9895 21.132 12.6108C20.525 11.0619 20.0832 9.78695 20.1461 9.76205C20.2091 9.73846 20.7518 10.9741 21.3589 12.5243C21.5057 12.9069 21.6447 13.2712 21.7784 13.6198C21.8348 13.7823 21.9305 13.9657 21.8597 14.1819C21.8217 14.2894 21.7181 14.368 21.6263 14.3942C21.5345 14.423 21.4532 14.4257 21.3824 14.4309C20.8135 14.4689 20.4595 14.4755 20.4569 14.4427Z" fill="#1A2E35"/>
<path d="M20.9225 21.0905C20.9225 21.0905 18.1824 21.2976 15.4489 19.6963C15.4489 19.6963 16.853 22.5005 20.9277 22.0733L20.9225 21.0905Z" fill="#D19E6B"/>
<path d="M18.4466 8.5969C18.3929 8.75021 17.8305 8.68469 17.1723 8.77118C16.5115 8.84456 15.9819 9.04373 15.8927 8.90746C15.8534 8.84194 15.9439 8.6978 16.1576 8.54711C16.3686 8.39641 16.7082 8.25227 17.1028 8.20379C17.4988 8.15662 17.8619 8.21427 18.1032 8.30993C18.3457 8.40559 18.4689 8.52352 18.4466 8.5969Z" fill="#1A2E35"/>
<path d="M23.7072 7.6748C23.6102 7.80322 23.2208 7.67611 22.7554 7.6748C22.29 7.65777 21.8954 7.77046 21.8036 7.63811C21.7629 7.5739 21.8233 7.44549 21.995 7.32231C22.1641 7.20045 22.446 7.09824 22.7672 7.10479C23.0871 7.11134 23.3664 7.22403 23.5289 7.35245C23.6941 7.48087 23.7492 7.6119 23.7072 7.6748Z" fill="#1A2E35"/>
<path d="M12.7096 13.5438C12.7056 13.2412 12.3464 12.5296 12.0462 12.4864C11.2451 12.3711 9.80296 12.451 9.81214 14.4834C9.82525 17.2601 12.6125 16.6743 12.6165 16.5957C12.6204 16.5315 12.724 14.5908 12.7096 13.5438Z" fill="#EFCA9A"/>
<path d="M11.7632 15.5459C11.7514 15.5367 11.7147 15.5799 11.6334 15.6179C11.5535 15.6546 11.4171 15.6808 11.2716 15.6271C10.9779 15.521 10.7288 15.0558 10.7118 14.5552C10.7039 14.3023 10.755 14.0612 10.8442 13.862C10.9281 13.6589 11.0592 13.5161 11.206 13.4886C11.3529 13.4532 11.4577 13.5423 11.4918 13.6196C11.5299 13.6969 11.5115 13.7533 11.5272 13.7572C11.5351 13.7638 11.5862 13.71 11.5639 13.596C11.5521 13.541 11.5194 13.4755 11.4538 13.4218C11.3869 13.368 11.2886 13.3405 11.1864 13.3523C10.9727 13.368 10.7799 13.5659 10.6829 13.7847C10.5741 14.0049 10.5099 14.2761 10.519 14.5592C10.54 15.1187 10.8284 15.6415 11.2309 15.7555C11.4263 15.8053 11.5889 15.7464 11.6728 15.6795C11.758 15.6127 11.7724 15.5511 11.7632 15.5459Z" fill="#FF9A6C"/>
<path d="M20.707 2.77407C20.5091 4.11982 19.51 5.3175 18.22 5.75254C17.5317 5.98448 16.6952 6.06834 16.3006 6.67898C15.8968 7.3014 16.1708 8.18328 15.7958 8.82405C15.278 9.71248 13.7886 9.71642 13.4084 10.6717C13.2419 11.0897 13.3507 11.5785 13.1764 11.9938C12.9456 12.5455 12.239 12.7971 11.6634 12.6333C11.0879 12.4695 10.65 11.9755 10.414 11.4264C10.178 10.8774 10.1138 10.2694 10.0639 9.67317C9.96824 8.49908 9.92367 7.29747 10.2475 6.16531C10.9253 3.79223 14.2357 0.43899 16.7031 0.537268L20.707 2.77407Z" fill="#1A2E35"/>
<path d="M16.0848 1.72414C16.0769 1.78966 17.2569 1.72021 18.5102 2.3505C19.7741 2.96113 20.4375 3.93867 20.4847 3.8928C20.503 3.88101 20.3693 3.62156 20.0586 3.26907C19.7492 2.91789 19.2457 2.4894 18.6007 2.16966C17.9544 1.85256 17.308 1.71366 16.84 1.68352C16.3706 1.65076 16.0835 1.70186 16.0848 1.72414Z" fill="#375A64"/>
<path d="M19.1813 1.50933C19.1524 1.56305 19.7634 1.8343 20.1751 2.50259C20.6011 3.1617 20.5854 3.82999 20.6457 3.82606C20.6693 3.82737 20.7113 3.66358 20.689 3.39233C20.6693 3.12239 20.5684 2.74894 20.3455 2.39514C20.1213 2.04265 19.8276 1.79106 19.593 1.6574C19.3557 1.51981 19.1892 1.48705 19.1813 1.50933Z" fill="#375A64"/>
<path d="M21.1758 16.4322C21.1758 16.4322 18.3728 18.0754 17.1417 14.958L21.1758 16.4322Z" fill="white"/>
</svg>
