<svg width="189" height="572" viewBox="0 0 189 572" fill="none" xmlns="http://www.w3.org/2000/svg">
<path d="M141.174 210.461C141.174 210.461 146.034 208.67 148.591 207.775C151.277 206.88 157.544 200.997 157.544 200.997C157.544 200.997 158.951 204.706 157.544 207.519C156.137 210.333 153.068 212.379 153.068 212.379L150.766 216.472L141.174 210.461Z" fill="#EDBF8E"/>
<path d="M132.605 175.546C132.605 175.546 165.729 124.39 167.264 125.924C168.798 127.459 183.761 140.376 183.761 140.376L161.381 174.395L132.605 175.546Z" fill="#E0E0E0"/>
<path d="M130.814 150.991C130.814 150.991 135.802 149.713 138.488 156.747C138.488 156.747 137.209 153.294 137.081 151.119C136.953 148.689 137.593 145.62 137.593 145.62L130.814 150.991Z" fill="#263238"/>
<path d="M152.173 245.886C152.173 245.886 152.173 245.503 152.045 244.735C152.045 243.84 151.918 242.689 151.918 241.282C151.79 238.213 151.534 233.865 151.278 228.493C150.639 217.75 149.616 202.659 146.674 186.417C143.733 170.175 138.873 155.852 134.013 146.132C131.711 141.272 129.537 137.435 127.874 134.878C127.107 133.599 126.467 132.576 125.956 131.936C125.572 131.297 125.316 130.913 125.316 130.913C125.316 130.913 125.572 131.297 126.084 131.936C126.467 132.576 127.235 133.599 128.002 134.878C129.665 137.435 131.839 141.272 134.269 146.132C139.129 155.852 144.116 170.175 147.058 186.417C149.999 202.659 150.894 217.75 151.534 228.493C151.79 233.865 152.045 238.341 152.045 241.282C152.045 242.817 152.173 243.968 152.173 244.735C152.173 245.375 152.173 245.886 152.173 245.886Z" fill="#263238"/>
<path d="M118.922 147.795C116.109 147.283 113.167 148.306 111.377 150.48C118.795 153.806 127.491 152.782 134.909 149.713L118.922 147.795Z" fill="#FF725E"/>
<g opacity="0.3">
<g opacity="0.3">
<g opacity="0.3">
<path opacity="0.3" d="M118.922 147.795C116.109 147.283 113.167 148.306 111.377 150.48C118.795 153.806 127.491 152.782 134.909 149.713L118.922 147.795Z" fill="black"/>
</g>
</g>
</g>
<path d="M142.074 128.483C140.667 130.402 139.516 132.96 139.899 135.389L136.574 148.434C139.771 146.388 142.074 143.191 143.097 139.482C143.992 135.901 143.736 131.936 142.074 128.483Z" fill="#FF725E"/>
<g opacity="0.3">
<g opacity="0.3">
<g opacity="0.3">
<path opacity="0.3" d="M142.074 128.483C140.667 130.402 139.516 132.96 139.899 135.389L136.574 148.434C139.771 146.388 142.074 143.191 143.097 139.482C143.992 135.901 143.736 131.936 142.074 128.483Z" fill="black"/>
</g>
</g>
</g>
<path d="M112.016 142.551C112.016 142.551 123.909 154.445 133.885 150.224C143.732 146.004 138.361 128.867 138.873 126.437C139.256 124.007 139.128 124.518 137.466 124.391C135.803 124.263 130.048 122.344 123.782 130.401C123.782 130.401 112.783 133.215 112.016 142.551Z" fill="#FC5154"/>
<path d="M115.342 145.365C115.342 145.365 115.214 145.237 115.214 144.981C115.086 144.725 115.086 144.341 115.086 143.958C115.086 143.446 115.342 142.935 115.725 142.423C116.109 141.784 116.621 141.272 117.388 140.888C118.155 140.505 119.178 140.505 120.074 140.377C120.585 140.377 120.969 140.249 121.353 139.865C121.736 139.61 121.992 139.098 122.248 138.714C122.504 138.203 122.887 137.691 123.271 137.308C123.782 136.924 124.294 136.668 124.933 136.54C125.573 136.412 126.212 136.54 126.852 136.796C127.363 137.052 128.003 137.307 128.514 137.18C129.026 137.052 129.41 136.54 129.921 136.156C130.433 135.773 131.2 135.773 131.84 135.901C133.118 136.284 133.758 137.435 134.269 138.459C135.293 140.377 135.676 142.423 135.804 144.086C135.932 145.748 135.676 147.027 135.548 147.922C135.42 148.306 135.293 148.69 135.293 148.945C135.165 149.201 135.165 149.329 135.165 149.329C135.037 149.329 135.932 147.411 135.676 144.086C135.548 142.423 135.165 140.505 134.142 138.714C133.63 137.819 132.991 136.796 131.967 136.412C131.456 136.284 130.816 136.284 130.433 136.54C129.921 136.796 129.538 137.435 128.898 137.563C128.131 137.691 127.491 137.435 126.98 137.18C126.468 136.924 125.829 136.924 125.317 136.924C124.166 137.052 123.271 137.819 122.887 138.714C122.631 139.226 122.376 139.61 121.864 139.993C121.48 140.377 120.841 140.505 120.329 140.505C119.306 140.633 118.411 140.505 117.772 140.888C116.365 141.528 115.725 142.935 115.598 143.83C115.214 144.853 115.47 145.365 115.342 145.365Z" fill="#263238"/>
<path d="M139.128 124.391C139.128 124.519 138.233 124.391 137.082 125.286C136.57 125.67 135.931 126.309 135.675 127.204C135.291 128.099 135.547 129.123 135.163 130.274C134.908 130.785 134.524 131.297 134.14 131.552C133.757 131.936 133.501 132.192 133.245 132.703C132.861 133.471 132.734 134.366 132.734 135.005C132.861 136.412 133.501 137.052 133.373 137.18C133.373 137.18 133.117 137.052 132.989 136.668C132.734 136.284 132.478 135.773 132.478 135.005C132.35 134.238 132.478 133.343 132.989 132.448C133.245 132.064 133.501 131.552 134.012 131.297C134.396 130.913 134.78 130.657 134.908 130.146C135.291 129.25 135.036 128.099 135.547 127.076C135.931 126.181 136.57 125.542 137.21 125.03C137.849 124.646 138.361 124.519 138.872 124.391C138.872 124.391 139.128 124.391 139.128 124.391Z" fill="#263238"/>
<path d="M132.48 135.773C132.48 135.773 131.712 134.878 130.178 133.983C129.41 133.471 128.387 133.087 127.108 133.087C125.957 133.087 124.55 133.343 123.527 134.11C123.016 134.494 122.632 135.134 122.248 135.645C121.865 136.157 121.353 136.796 120.714 136.924C120.074 137.18 119.563 137.18 119.051 137.436C118.54 137.691 118.156 137.947 117.9 138.203C117.261 138.842 117.261 139.738 117.389 140.121C117.516 140.633 117.772 140.889 117.644 140.889C117.644 140.889 117.516 140.889 117.516 140.761C117.389 140.633 117.261 140.505 117.261 140.249C117.133 139.738 117.005 138.842 117.644 138.075C117.9 137.691 118.412 137.308 118.923 137.18C119.435 136.924 120.074 136.924 120.586 136.668C121.737 136.285 122.121 134.75 123.272 133.855C124.423 132.959 125.957 132.576 127.236 132.704C128.515 132.832 129.538 133.215 130.433 133.727C131.201 134.238 131.84 134.75 132.096 135.134C132.352 135.517 132.48 135.773 132.48 135.773Z" fill="#263238"/>
<path d="M135.164 129.251C135.164 129.251 134.78 128.867 134.013 128.612C133.629 128.484 133.117 128.612 132.734 128.867C132.478 128.995 132.35 129.251 131.966 129.379C131.711 129.507 131.327 129.635 130.943 129.635C129.537 129.507 128.769 130.53 128.386 131.297C128.002 132.065 127.874 132.576 127.746 132.576C127.746 132.576 127.746 132.065 128.13 131.169C128.258 130.786 128.513 130.274 129.025 129.89C129.281 129.635 129.537 129.507 129.92 129.379C130.304 129.251 130.56 129.251 130.943 129.251C131.327 129.251 131.583 129.251 131.839 128.995C132.094 128.867 132.35 128.612 132.606 128.484C133.117 128.1 133.757 128.1 134.141 128.228C134.908 128.612 135.164 129.251 135.164 129.251Z" fill="#263238"/>
<g opacity="0.3">
<g opacity="0.3">
<g opacity="0.3">
<path opacity="0.3" d="M134.527 126.693C133.887 126.181 132.992 126.181 132.225 126.309C130.69 126.565 129.155 127.205 128.26 128.356C127.748 128.995 127.493 129.89 126.725 130.274C126.214 130.53 125.574 130.402 124.935 130.53C123.912 130.53 122.889 131.041 122.249 131.809C121.482 132.576 121.098 133.599 120.331 134.239C119.691 134.75 118.924 134.878 118.157 135.262C117.134 135.773 116.238 136.541 115.727 137.564C115.343 138.331 115.087 139.226 115.471 139.994C115.855 140.761 116.878 141.272 117.517 140.761V140.633C117.006 139.482 117.517 137.947 118.54 137.308C119.436 136.668 120.842 136.668 121.61 135.901C122.121 135.39 122.505 134.75 122.889 134.111C123.528 133.343 124.295 132.96 125.319 132.832C126.086 132.704 126.981 132.96 127.621 132.576C127.621 132.576 128.004 131.169 128.388 130.658C129.795 128.483 130.306 129.762 131.329 129.251C131.841 128.995 132.48 128.483 132.992 128.356C133.631 128.228 134.271 128.356 134.782 128.611C135.422 128.228 135.166 127.205 134.527 126.693Z" fill="black"/>
</g>
</g>
</g>
<g opacity="0.3">
<g opacity="0.3">
<g opacity="0.3">
<path opacity="0.3" d="M135.167 148.689C135.422 147.154 135.806 145.62 136.062 143.957C136.19 142.423 136.19 140.76 135.806 139.225C135.294 137.691 134.399 136.284 132.992 135.516C131.586 134.749 129.795 134.621 128.388 135.389C128.005 135.644 127.749 135.9 127.365 136.028C126.598 136.284 125.831 135.9 125.063 135.9C124.04 135.9 123.017 136.284 122.378 137.051C121.738 137.819 121.354 139.097 120.331 139.481C119.948 139.737 119.436 139.737 119.052 139.865C118.669 139.993 118.157 140.248 118.029 140.632C119.436 140.888 120.971 140.376 121.866 139.353C122.25 138.842 122.633 138.33 123.017 137.818C123.401 137.307 123.912 136.923 124.552 136.795C125.575 136.54 126.598 137.307 127.621 137.307C129.028 137.307 130.179 135.9 131.586 136.028C132.737 136.156 133.504 137.179 134.016 138.074C135.039 139.993 135.678 142.167 135.806 144.469" fill="black"/>
</g>
</g>
</g>
<path d="M142.966 168C137.723 163.141 129.41 159.815 122.248 159.56C125.317 161.862 128.515 164.164 132.223 165.954C135.677 167.617 139.641 168.64 142.966 168Z" fill="#263238"/>
<path d="M141.687 164.676C140.664 157.003 143.989 148.562 150 143.574C150.256 151.631 147.442 159.177 141.687 164.676Z" fill="#263238"/>
<path d="M146.672 185.521C146.8 177.72 151.276 169.919 157.926 165.826C156.392 173.372 152.299 180.15 146.672 185.521Z" fill="#263238"/>
<path d="M167.264 131.295C167.264 131.295 172.251 132.829 170.845 140.247C170.845 140.247 171.484 136.666 172.507 134.748C173.658 132.574 175.832 130.399 175.832 130.399L167.264 131.295Z" fill="#263238"/>
<path d="M149.488 219.54C149.488 219.54 149.488 219.156 149.616 218.389C149.744 217.621 149.872 216.47 150.128 215.191C150.639 212.378 151.279 208.413 152.302 203.426C153.325 198.438 154.732 192.683 156.778 186.288C157.801 183.091 158.824 179.766 160.103 176.313C161.382 172.86 162.661 169.407 163.94 165.698C166.498 158.408 168.544 151.374 169.951 144.852C171.357 138.329 172.253 132.447 172.636 127.331C173.02 122.343 173.148 118.251 173.148 115.437C173.148 114.03 173.02 112.879 173.02 112.24C173.02 111.473 173.02 111.089 173.02 111.089C173.02 111.089 173.02 111.473 173.148 112.24C173.148 113.007 173.276 114.03 173.276 115.437C173.404 118.251 173.276 122.343 172.892 127.331C172.508 132.319 171.741 138.329 170.334 144.852C168.928 151.374 166.881 158.408 164.324 165.698C163.045 169.279 161.766 172.86 160.487 176.313C159.208 179.766 158.185 183.091 157.162 186.288C155.115 192.683 153.709 198.438 152.686 203.426C151.662 208.413 150.895 212.378 150.384 215.191C150.128 216.598 150 217.621 149.744 218.389C149.616 219.156 149.488 219.54 149.488 219.54Z" fill="#263238"/>
<path d="M155.5 114.414C155.5 114.414 159.592 130.784 170.207 132.19C180.822 133.725 185.043 116.204 186.705 114.286C188.368 112.367 187.984 112.751 186.577 111.856C185.17 110.833 181.206 106.229 171.742 110.065C171.87 109.937 160.999 106.74 155.5 114.414Z" fill="#FC5154"/>
<path d="M156.906 118.506C156.906 118.506 156.906 118.378 156.906 118.123C156.906 117.867 157.034 117.483 157.418 117.099C157.674 116.716 158.185 116.332 158.697 116.076C159.336 115.693 160.104 115.565 160.871 115.565C161.766 115.565 162.533 116.076 163.429 116.46C163.812 116.716 164.324 116.844 164.835 116.716C165.347 116.588 165.731 116.46 166.242 116.204C166.754 115.948 167.265 115.693 167.905 115.565C168.544 115.437 169.184 115.565 169.695 115.821C170.335 116.076 170.846 116.46 171.23 116.972C171.614 117.483 171.997 117.995 172.509 118.123C173.02 118.251 173.66 117.995 174.299 117.995C174.939 117.995 175.578 118.251 176.09 118.762C176.985 119.785 176.857 121.064 176.857 122.087C176.729 124.261 176.09 126.18 175.322 127.714C174.555 129.121 173.66 130.272 173.02 130.912C172.637 131.295 172.381 131.423 172.253 131.679C172.125 131.807 171.997 131.935 171.997 131.935C171.869 131.807 173.66 130.656 175.067 127.714C175.834 126.308 176.346 124.389 176.473 122.215C176.601 121.192 176.601 119.913 175.834 119.146C175.45 118.762 174.939 118.506 174.427 118.506C173.916 118.506 173.276 118.89 172.509 118.634C171.869 118.378 171.486 117.739 171.102 117.355C170.718 116.844 170.335 116.588 169.823 116.332C168.8 115.821 167.649 116.076 166.754 116.588C166.242 116.844 165.731 117.099 165.219 117.227C164.708 117.355 164.068 117.1 163.684 116.972C162.789 116.46 162.022 116.076 161.255 116.076C159.592 115.948 158.441 116.844 157.801 117.355C157.034 117.995 157.034 118.506 156.906 118.506Z" fill="#263238"/>
<path d="M188.11 112.751C188.11 112.879 187.342 112.239 185.936 112.367C185.296 112.495 184.401 112.623 183.761 113.262C182.994 113.774 182.61 114.797 181.715 115.564C181.204 115.948 180.692 116.076 180.181 116.204C179.669 116.332 179.285 116.46 178.902 116.715C178.134 117.227 177.623 117.866 177.239 118.506C176.6 119.785 176.855 120.68 176.727 120.68C176.727 120.68 176.6 120.424 176.6 120.041C176.6 119.657 176.6 119.017 176.983 118.378C177.239 117.739 177.878 116.971 178.646 116.46C179.03 116.204 179.541 116.076 180.053 115.948C180.564 115.82 181.076 115.692 181.459 115.437C182.227 114.797 182.738 113.774 183.506 113.134C184.273 112.495 185.168 112.367 185.936 112.239C186.703 112.239 187.214 112.367 187.598 112.495C187.854 112.623 188.11 112.751 188.11 112.751Z" fill="#263238"/>
<path d="M176.599 119.146C176.471 119.146 176.343 117.995 175.576 116.332C175.192 115.565 174.425 114.669 173.529 113.902C172.506 113.263 171.227 112.751 169.821 113.007C169.181 113.135 168.542 113.391 167.902 113.646C167.263 113.902 166.623 114.158 165.856 114.03C165.217 113.902 164.705 113.646 164.193 113.518C163.682 113.391 163.17 113.518 162.787 113.646C161.891 113.902 161.508 114.542 161.38 115.053C161.252 115.565 161.252 115.82 161.252 115.82C161.252 115.82 161.252 115.693 161.252 115.565C161.252 115.437 161.252 115.181 161.252 114.925C161.38 114.414 161.764 113.646 162.787 113.263C163.298 113.135 163.81 113.007 164.321 113.135C164.961 113.263 165.472 113.518 165.984 113.518C167.135 113.774 168.286 112.623 169.693 112.495C171.227 112.367 172.634 112.879 173.657 113.518C174.68 114.286 175.32 115.181 175.831 116.076C176.215 116.971 176.471 117.611 176.599 118.122C176.599 118.89 176.599 119.146 176.599 119.146Z" fill="#263238"/>
<path d="M182.225 114.797C182.097 114.797 182.097 114.286 181.458 113.646C181.202 113.39 180.69 113.135 180.179 113.262C179.923 113.262 179.667 113.39 179.284 113.39C178.9 113.39 178.644 113.262 178.26 113.135C177.109 112.367 175.958 112.751 175.319 113.262C174.552 113.774 174.168 114.03 174.168 114.03C174.168 114.03 174.424 113.518 175.191 113.007C175.575 112.751 176.086 112.495 176.598 112.367C176.854 112.367 177.237 112.367 177.621 112.367C178.005 112.495 178.26 112.623 178.516 112.751C178.772 112.879 179.028 113.007 179.284 113.007C179.539 113.007 179.795 113.007 180.179 112.879C180.818 112.879 181.33 113.135 181.714 113.518C182.353 114.158 182.225 114.797 182.225 114.797Z" fill="#263238"/>
<g opacity="0.3">
<g opacity="0.3">
<g opacity="0.3">
<path opacity="0.3" d="M182.996 112.367C182.613 111.6 181.973 111.216 181.206 110.832C179.799 110.193 178.137 109.937 176.73 110.576C175.962 110.96 175.323 111.472 174.428 111.472C173.788 111.472 173.405 110.96 172.765 110.704C171.87 110.193 170.719 110.065 169.824 110.449C168.801 110.704 167.905 111.472 166.882 111.6C166.115 111.727 165.348 111.472 164.452 111.344C163.301 111.216 162.15 111.472 161.127 112.111C160.36 112.495 159.72 113.134 159.592 114.029C159.465 114.925 160.104 115.82 160.999 115.82H161.127C161.383 114.541 162.534 113.518 163.685 113.518C164.836 113.518 165.987 114.157 167.01 113.902C167.777 113.774 168.417 113.262 169.056 113.134C169.952 112.878 170.975 112.878 171.742 113.262C172.381 113.518 173.149 114.285 173.788 114.157C173.788 114.157 174.811 113.134 175.451 112.878C177.753 111.855 177.497 113.134 178.648 113.262C179.288 113.39 179.927 113.134 180.566 113.39C181.206 113.646 181.717 114.029 181.973 114.541C182.996 114.157 183.252 113.134 182.996 112.367Z" fill="black"/>
</g>
</g>
</g>
<g opacity="0.3">
<g opacity="0.3">
<g opacity="0.3">
<path opacity="0.3" d="M172.254 131.551C173.277 130.4 174.428 129.249 175.451 127.97C176.474 126.691 177.241 125.284 177.625 123.749C178.009 122.215 177.881 120.552 177.113 119.145C176.346 117.739 174.939 116.715 173.277 116.715C172.893 116.715 172.509 116.715 172.126 116.715C171.358 116.588 170.847 115.82 170.207 115.437C169.44 114.925 168.289 114.669 167.394 115.053C166.371 115.437 165.475 116.204 164.452 116.076C164.069 116.076 163.557 115.82 163.173 115.692C162.79 115.564 162.278 115.564 161.895 115.82C162.918 116.715 164.452 117.099 165.859 116.715C166.499 116.588 167.01 116.204 167.65 116.076C168.289 115.82 168.928 115.82 169.568 115.948C170.591 116.332 171.103 117.355 171.998 117.866C173.277 118.506 174.939 117.994 176.09 118.89C176.986 119.529 177.113 120.808 177.113 121.959C176.986 124.133 176.346 126.435 175.323 128.353" fill="black"/>
</g>
</g>
</g>
<path d="M168.802 152.141C166.755 145.235 161.384 138.073 155.373 134.236C156.908 137.817 158.442 141.398 160.617 144.723C162.919 148.048 165.732 150.862 168.802 152.141Z" fill="#263238"/>
<path d="M169.438 148.56C172.507 141.398 179.669 136.027 187.342 134.876C183.633 141.782 177.367 146.898 169.438 148.56Z" fill="#263238"/>
<path d="M158.951 180.149C161.253 172.732 167.648 166.337 175.065 164.163C171.74 171.069 165.857 176.568 158.951 180.149Z" fill="#263238"/>
<path d="M143.732 120.169C143.732 120.169 149.36 119.785 150.894 127.842C150.894 127.842 150.127 123.877 150.383 121.575C150.638 118.89 152.045 115.82 152.045 115.82L143.732 120.169Z" fill="#455A64"/>
<path d="M149.487 211.61C149.487 211.61 149.487 211.226 149.615 210.459C149.743 209.692 149.871 208.669 149.999 207.262C150.383 204.448 150.894 200.484 151.534 195.624C152.173 190.636 152.812 184.753 153.196 178.231C153.58 171.708 153.708 164.419 153.708 156.873C153.58 149.328 152.94 142.038 152.045 135.515C151.15 128.993 149.871 123.238 148.464 118.378C147.185 113.646 145.779 109.81 144.755 107.252C144.244 105.973 143.86 104.95 143.604 104.31C143.349 103.671 143.221 103.287 143.221 103.287C143.221 103.287 143.349 103.671 143.732 104.31C143.988 104.95 144.5 105.973 145.011 107.252C146.034 109.81 147.441 113.646 148.848 118.378C150.255 123.11 151.534 128.993 152.429 135.515C153.324 142.038 153.963 149.328 154.091 156.873C154.219 164.419 153.963 171.708 153.58 178.231C153.196 184.753 152.429 190.636 151.789 195.624C151.15 200.611 150.51 204.576 150.127 207.262C149.871 208.541 149.743 209.692 149.615 210.459C149.615 211.226 149.487 211.61 149.487 211.61Z" fill="#455A64"/>
<path d="M131.583 114.542C128.77 113.391 125.317 114.03 122.887 115.949C130.176 120.809 139.768 121.448 148.337 119.53L131.583 114.542Z" fill="#FF725E"/>
<g opacity="0.3">
<g opacity="0.3">
<g opacity="0.3">
<path opacity="0.3" d="M131.583 114.542C128.77 113.391 125.317 114.03 122.887 115.949C130.176 120.809 139.768 121.448 148.337 119.53L131.583 114.542Z" fill="black"/>
</g>
</g>
</g>
<path d="M159.977 98.1719C158.059 99.9623 156.397 102.52 156.269 105.078L150.258 118.506C154.095 116.844 157.164 113.902 158.954 110.194C160.745 106.485 161.129 102.136 159.977 98.1719Z" fill="#FF725E"/>
<g opacity="0.3">
<g opacity="0.3">
<g opacity="0.3">
<path opacity="0.3" d="M159.977 98.1719C158.059 99.9623 156.397 102.52 156.269 105.078L150.258 118.506C154.095 116.844 157.164 113.902 158.954 110.194C160.745 106.485 161.129 102.136 159.977 98.1719Z" fill="black"/>
</g>
</g>
</g>
<path d="M125.186 107.636C125.186 107.636 135.8 122.599 147.183 119.914C158.565 117.228 156.007 97.7888 157.03 95.231C157.925 92.6732 157.67 93.1847 155.879 92.8011C154.089 92.4174 148.206 89.2201 140.149 96.7656C140.149 96.7656 127.743 97.6609 125.186 107.636Z" fill="#FC5154"/>
<path d="M128.257 111.216C128.257 111.216 128.257 111.088 128.129 110.833C128.129 110.577 128.129 110.193 128.257 109.682C128.385 109.17 128.768 108.658 129.152 108.147C129.664 107.635 130.303 107.124 131.198 106.868C132.094 106.612 133.117 106.74 134.14 106.868C134.651 106.868 135.163 106.868 135.674 106.612C136.186 106.356 136.442 105.973 136.825 105.461C137.209 104.95 137.593 104.566 138.232 104.182C138.872 103.927 139.511 103.671 140.151 103.799C140.79 103.799 141.557 104.054 142.069 104.438C142.58 104.822 143.22 105.205 143.859 105.078C144.499 105.078 145.01 104.566 145.65 104.31C146.289 103.927 147.057 104.054 147.696 104.438C148.975 105.078 149.359 106.484 149.742 107.635C150.51 109.937 150.51 112.112 150.382 113.902C150.126 115.692 149.742 117.099 149.359 117.994C149.103 118.506 148.975 118.762 148.847 119.018C148.719 119.273 148.591 119.401 148.591 119.401C148.591 119.401 148.847 118.89 149.103 117.994C149.487 117.099 149.87 115.692 149.998 113.902C150.126 112.112 149.998 109.937 149.359 107.763C148.975 106.612 148.591 105.461 147.44 104.822C146.929 104.566 146.289 104.438 145.778 104.694C145.266 104.95 144.755 105.461 143.859 105.589C143.092 105.589 142.453 105.205 141.941 104.822C141.429 104.438 140.79 104.31 140.151 104.31C139.511 104.31 139 104.438 138.36 104.694C137.849 104.95 137.465 105.333 137.081 105.845C136.698 106.229 136.314 106.74 135.802 106.996C135.291 107.252 134.651 107.252 134.14 107.252C133.117 107.124 132.093 106.996 131.326 107.252C129.664 107.763 128.768 109.042 128.385 109.937C128.129 110.705 128.257 111.216 128.257 111.216Z" fill="#263238"/>
<path d="M157.543 93.1845C157.543 93.3124 156.52 93.0566 155.113 93.6961C154.473 94.0798 153.706 94.5913 153.194 95.4866C152.683 96.2539 152.683 97.5328 152.043 98.6838C151.66 99.1954 151.148 99.579 150.637 99.8348C150.125 100.091 149.741 100.474 149.486 100.858C148.846 101.625 148.59 102.521 148.463 103.288C148.335 104.823 148.846 105.718 148.846 105.718C148.846 105.718 148.718 105.59 148.463 105.078C148.335 104.695 148.079 104.055 148.207 103.16C148.207 102.393 148.462 101.37 149.23 100.474C149.614 100.091 149.997 99.7069 150.509 99.3233C151.02 99.0675 151.404 98.6838 151.788 98.3001C152.299 97.277 152.427 96.126 152.939 95.2308C153.45 94.3355 154.345 93.6961 155.113 93.4403C155.88 93.0566 156.52 93.0566 156.903 93.0566C157.415 93.1845 157.543 93.1845 157.543 93.1845Z" fill="#263238"/>
<path d="M148.465 104.183C148.337 104.183 147.826 103.032 146.291 101.753C145.524 101.114 144.501 100.474 143.222 100.218C141.943 99.9625 140.408 99.9625 139.129 100.73C138.49 101.114 137.978 101.625 137.467 102.137C136.955 102.648 136.316 103.16 135.548 103.288C134.909 103.416 134.27 103.288 133.63 103.416C133.119 103.543 132.607 103.799 132.223 104.055C131.456 104.694 131.328 105.59 131.328 106.101C131.328 106.613 131.584 106.869 131.584 106.996C131.584 106.996 131.328 106.741 131.2 106.229C131.072 105.718 131.2 104.694 132.095 103.927C132.479 103.543 132.991 103.288 133.63 103.16C134.27 103.032 134.909 103.032 135.548 102.904C136.827 102.776 137.467 101.114 139.001 100.346C140.408 99.5788 142.071 99.5788 143.35 99.8346C144.757 100.218 145.78 100.858 146.547 101.625C147.314 102.265 147.826 103.032 148.082 103.416C148.337 103.927 148.465 104.183 148.465 104.183Z" fill="#263238"/>
<path d="M152.429 97.661C152.429 97.661 152.173 97.1494 151.278 96.7658C150.894 96.6379 150.255 96.51 149.743 96.7658C149.487 96.8936 149.232 97.0215 148.848 97.2773C148.464 97.4052 148.081 97.4052 147.697 97.4052C146.29 97.0215 145.139 97.9168 144.628 98.6841C144.116 99.4515 143.86 99.963 143.732 99.963C143.732 99.963 143.86 99.3236 144.372 98.5562C144.628 98.1726 145.011 97.661 145.651 97.2773C145.907 97.1494 146.29 97.0215 146.674 96.8936C147.058 96.8936 147.441 96.8936 147.825 96.8936C148.209 96.8936 148.464 96.8936 148.72 96.8936C148.976 96.7658 149.232 96.6379 149.615 96.51C150.255 96.2542 150.894 96.3821 151.406 96.51C152.301 96.8937 152.429 97.661 152.429 97.661Z" fill="#263238"/>
<g opacity="0.3">
<g opacity="0.3">
<g opacity="0.3">
<path opacity="0.3" d="M152.299 94.8474C151.66 94.208 150.764 94.0801 149.869 94.0801C148.207 94.0801 146.416 94.4637 145.265 95.6148C144.626 96.2542 144.114 97.1494 143.347 97.4052C142.707 97.5331 142.068 97.4052 141.429 97.2773C140.278 97.1494 139.127 97.4052 138.231 98.1726C137.336 98.812 136.697 99.963 135.673 100.475C134.906 100.858 134.011 100.858 133.116 101.114C131.965 101.498 130.814 102.137 130.046 103.16C129.535 103.928 129.023 104.823 129.279 105.718C129.535 106.613 130.558 107.381 131.325 106.997L131.453 106.869C131.197 105.462 131.965 104.056 133.244 103.544C134.395 103.032 135.801 103.288 136.824 102.649C137.464 102.265 137.976 101.498 138.615 100.986C139.382 100.347 140.405 99.963 141.429 99.963C142.196 99.963 143.219 100.475 143.986 100.091C143.986 100.091 144.626 98.6841 145.137 98.1726C147.056 96.1263 147.311 97.5331 148.59 97.2773C149.23 97.1494 149.869 96.6379 150.637 96.6379C151.276 96.6379 152.043 96.7658 152.555 97.2773C152.939 96.6379 152.939 95.4869 152.299 94.8474Z" fill="black"/>
</g>
</g>
</g>
<g opacity="0.3">
<g opacity="0.3">
<g opacity="0.3">
<path opacity="0.3" d="M148.848 118.634C149.488 116.972 150.127 115.437 150.639 113.774C151.15 112.112 151.406 110.321 151.15 108.659C150.894 106.996 150.127 105.206 148.848 104.055C147.569 102.904 145.651 102.392 143.988 103.031C143.605 103.159 143.221 103.415 142.71 103.415C141.814 103.543 141.047 103.031 140.28 102.904C139.257 102.648 138.106 102.904 137.21 103.671C136.315 104.438 135.676 105.589 134.652 105.973C134.141 106.101 133.629 106.101 133.246 106.101C132.734 106.101 132.223 106.357 131.967 106.74C133.374 107.252 135.164 106.996 136.443 106.101C136.955 105.717 137.466 105.206 137.978 104.694C138.489 104.31 139.129 103.927 139.896 103.799C141.047 103.799 141.942 104.694 143.093 104.822C144.628 105.078 146.163 103.799 147.569 104.183C148.72 104.566 149.36 105.717 149.744 106.868C150.511 109.17 150.767 111.6 150.383 114.03" fill="black"/>
</g>
</g>
</g>
<path d="M153.448 142.806C149.1 137.051 141.682 132.191 134.648 130.656C137.334 133.47 140.02 136.411 143.217 138.713C146.414 141.015 149.995 142.678 153.448 142.806Z" fill="#455A64"/>
<path d="M152.43 136.923C152.941 129.122 157.673 121.576 164.451 117.867C163.428 125.668 159.208 132.702 152.43 136.923Z" fill="#455A64"/>
<path d="M153.963 160.966C155.625 153.293 161.381 146.387 168.67 143.701C165.857 150.735 160.485 156.746 153.963 160.966Z" fill="#455A64"/>
<path d="M147.695 282.59C147.695 282.59 147.695 282.462 147.695 282.079C147.823 281.695 147.823 281.183 147.951 280.672C148.207 279.393 148.463 277.602 148.718 275.428C149.358 270.952 149.997 264.813 150.381 257.907C150.765 251.001 151.148 244.863 151.532 240.386C151.788 238.084 151.916 236.294 152.171 235.143C152.299 234.631 152.299 234.12 152.427 233.736C152.427 233.352 152.555 233.225 152.555 233.225C152.555 233.225 152.555 233.352 152.555 233.736C152.555 234.12 152.427 234.631 152.427 235.143C152.299 236.422 152.171 238.212 151.916 240.514C151.532 244.99 151.276 251.257 150.893 258.035C150.509 264.941 149.869 271.08 149.102 275.556C148.718 277.73 148.463 279.521 148.207 280.8C148.079 281.311 147.951 281.823 147.951 282.207C147.695 282.334 147.695 282.59 147.695 282.59Z" fill="#263238"/>
<path d="M154.732 271.848C154.732 271.848 154.732 271.72 154.604 271.464C154.604 271.08 154.476 270.697 154.476 270.313C154.348 269.29 154.348 267.755 154.221 265.837C154.093 262.128 153.965 256.884 153.965 251.129C153.965 245.374 153.837 240.259 153.837 236.422C153.837 234.632 153.709 233.097 153.709 231.946C153.709 231.434 153.709 231.051 153.709 230.795C153.709 230.539 153.709 230.411 153.709 230.411C153.709 230.411 153.709 230.539 153.837 230.795C153.837 231.178 153.965 231.562 153.965 231.946C154.093 232.969 154.093 234.504 154.221 236.422C154.348 240.131 154.476 245.374 154.476 251.129C154.476 256.884 154.604 262 154.604 265.837C154.604 267.627 154.732 269.162 154.732 270.313C154.732 270.824 154.732 271.208 154.732 271.464C154.732 271.72 154.732 271.848 154.732 271.848Z" fill="#263238"/>
<path d="M132.605 175.547C132.605 175.547 149.871 212.507 150.382 213.146L144.371 264.047L159.974 252.409L161.764 206.88L183.761 140.377L132.605 175.547Z" fill="#E0E0E0"/>
<path d="M161.766 208.286C161.766 208.286 161.127 208.67 160.103 209.181C159.08 209.693 157.674 210.332 156.139 210.972C154.604 211.611 153.069 212.251 152.046 212.634C151.023 213.018 150.384 213.274 150.256 213.274C150.256 213.274 150.895 212.89 151.918 212.379C152.942 211.867 154.348 211.228 155.883 210.588C157.418 209.949 158.952 209.309 159.976 208.798C161.127 208.414 161.766 208.158 161.766 208.286Z" fill="#263238"/>
<path d="M156.395 210.843C156.395 210.843 156.395 210.715 156.267 210.459C156.267 210.204 156.139 209.82 156.011 209.436C155.884 208.541 155.628 207.262 155.372 205.6C155.116 203.937 154.988 202.019 154.988 199.845C154.988 198.821 154.988 197.67 154.988 196.519C154.988 195.88 154.988 195.368 155.116 194.729C155.116 194.473 155.244 194.09 155.372 193.834C155.5 193.578 155.884 193.322 156.267 193.194C156.651 193.194 157.035 193.45 157.162 193.706C157.29 193.962 157.418 194.345 157.546 194.601C157.674 195.241 157.802 195.752 157.93 196.392C158.186 197.543 158.313 198.694 158.441 199.717C158.569 201.891 158.441 203.809 158.186 205.472C157.93 207.134 157.546 208.413 157.162 209.181C157.035 209.564 156.907 209.948 156.779 210.204C156.651 210.459 156.651 210.587 156.651 210.587C156.651 210.587 156.779 210.076 157.035 209.181C157.29 208.285 157.674 207.006 157.93 205.472C158.186 203.809 158.313 201.891 158.186 199.845C158.058 198.821 157.93 197.67 157.674 196.519C157.546 196.008 157.418 195.368 157.29 194.857C157.162 194.345 156.907 193.706 156.395 193.706C155.884 193.706 155.628 194.345 155.628 194.857C155.628 195.496 155.628 196.008 155.5 196.647C155.5 197.798 155.5 198.949 155.5 199.973C155.5 202.147 155.628 204.065 155.884 205.6C156.011 207.262 156.267 208.541 156.395 209.436C156.267 210.459 156.395 210.843 156.395 210.843Z" fill="#263238"/>
<path d="M156.264 210.971C156.264 210.971 156.137 210.971 156.009 210.843C155.881 210.715 155.497 210.587 155.241 210.459C154.474 210.076 153.579 209.436 152.428 208.541C151.277 207.646 149.998 206.367 148.847 204.832C148.207 204.065 147.696 203.297 147.184 202.274C146.928 201.763 146.673 201.379 146.417 200.868C146.289 200.612 146.161 200.356 146.033 200.1C145.905 199.844 145.905 199.461 146.161 199.077C146.673 198.438 147.44 198.693 147.952 198.949C148.463 199.333 148.719 199.717 149.103 200.1C149.87 200.868 150.509 201.507 151.149 202.274C152.428 203.681 153.451 205.088 154.218 206.367C154.986 207.518 155.625 208.669 156.009 209.308C156.137 209.692 156.392 209.948 156.392 210.204C156.52 210.459 156.52 210.459 156.52 210.459C156.52 210.459 156.264 210.076 155.881 209.436C155.497 208.797 154.858 207.774 154.09 206.495C153.323 205.344 152.172 203.937 151.021 202.53C150.382 201.763 149.742 201.123 148.975 200.356C148.591 199.972 148.207 199.589 147.824 199.333C147.44 199.077 146.928 198.949 146.673 199.333C146.417 199.717 146.673 200.228 146.928 200.612C147.184 201.123 147.44 201.507 147.696 202.019C148.207 202.914 148.719 203.681 149.358 204.448C150.509 205.983 151.66 207.134 152.811 208.157C153.835 209.053 154.858 209.82 155.497 210.204C155.881 210.715 156.264 210.971 156.264 210.971Z" fill="#263238"/>
<path d="M154.348 229.261C154.348 229.261 154.348 229.005 154.348 228.494C154.348 227.982 154.348 227.343 154.348 226.447C154.476 224.785 154.603 222.483 154.859 219.925C155.115 217.367 155.499 215.065 155.882 213.403C156.01 212.635 156.138 211.868 156.266 211.484C156.394 210.973 156.522 210.845 156.522 210.845C156.522 210.845 156.394 211.868 156.138 213.53C155.882 215.193 155.499 217.495 155.243 220.053C154.987 222.611 154.731 224.913 154.603 226.575C154.476 228.238 154.348 229.261 154.348 229.261Z" fill="#263238"/>
<path d="M157.29 223.761C157.162 223.761 156.906 220.819 156.523 217.11C156.267 213.401 156.139 210.46 156.267 210.46C156.395 210.46 156.651 213.401 157.034 217.11C157.162 220.691 157.418 223.761 157.29 223.761Z" fill="#263238"/>
<path d="M160.745 156.746C160.872 156.746 156.908 165.826 152.048 176.825C147.06 187.951 143.096 196.776 142.968 196.776C142.84 196.776 146.805 187.695 151.664 176.697C156.652 165.698 160.617 156.746 160.745 156.746Z" fill="#263238"/>
<path d="M135.807 216.854L122.89 214.936L116.879 237.572L141.178 240.002L135.807 216.854Z" fill="#EDBF8E"/>
<path d="M166.241 213.401C163.556 212.89 161.509 215.448 160.358 215.703C159.08 215.959 148.72 214.808 148.72 214.808L141.175 210.46L135.164 216.982L138.489 239.875C138.489 239.875 161.637 240.514 164.323 238.724C167.009 236.933 168.415 230.283 169.694 228.237C170.973 226.19 170.462 223.761 169.822 221.714C169.055 219.796 170.845 214.169 166.241 213.401Z" fill="#EDBF8E"/>
<path d="M160.488 215.704C160.488 215.831 157.419 215.576 153.582 215.32C149.745 214.936 146.676 214.68 146.676 214.553C146.676 214.425 149.745 214.68 153.582 214.936C157.419 215.32 160.488 215.704 160.488 215.704Z" fill="#6F4439"/>
<path d="M169.826 219.284C169.826 219.284 169.953 219.796 169.698 220.563C169.57 221.33 169.058 222.354 168.291 223.377C167.524 224.4 166.5 225.039 165.861 225.295C165.094 225.679 164.582 225.679 164.582 225.679C164.582 225.551 166.5 225.039 168.035 223.121C169.57 221.33 169.698 219.284 169.826 219.284Z" fill="#6F4439"/>
<path d="M168.674 230.284C168.802 230.284 168.29 231.307 167.139 231.946C165.988 232.586 164.965 232.586 164.965 232.458C164.965 232.33 165.988 232.202 167.011 231.69C168.034 230.923 168.546 230.156 168.674 230.284Z" fill="#6F4439"/>
<path d="M96.5454 28.2162C94.3713 12.4857 80.4313 0.975644 64.5729 1.99876L63.0382 2.12665C46.0288 4.17289 38.3554 19.6476 40.7854 36.5291L46.6683 93.0565L47.052 109.938L87.0816 119.146L85.8027 86.9178C85.8027 86.9178 102.045 83.3368 101.277 66.9669C100.766 59.0377 98.7196 42.7957 96.5454 28.2162Z" fill="#EDBF8E"/>
<path d="M85.9288 86.7904C85.9288 86.7904 75.5697 88.0693 64.1875 81.8027C64.1875 81.8027 69.9426 93.3128 86.1846 90.755L85.9288 86.7904Z" fill="#D8A577"/>
<path d="M92.5791 42.7971C92.707 44.076 91.8117 45.0991 90.5328 45.227C89.2539 45.3549 88.1029 44.4596 87.975 43.3086C87.8472 42.0297 88.7424 41.0066 90.0213 40.8787C91.3002 40.6229 92.4512 41.5182 92.5791 42.7971Z" fill="#263238"/>
<path d="M93.6028 36.401C93.347 36.7847 91.4286 35.5058 88.9987 35.6337C86.4409 35.7616 84.7784 37.1684 84.3947 36.9126C84.2668 36.7847 84.5226 36.2731 85.2899 35.6337C86.0573 34.9942 87.3362 34.3548 88.8708 34.2269C90.4055 34.099 91.8123 34.6106 92.5797 35.1221C93.347 35.7616 93.7307 36.2732 93.6028 36.401Z" fill="#263238"/>
<path d="M70.3271 44.2027C70.455 45.4816 69.5598 46.5047 68.2809 46.6326C67.002 46.7605 65.851 45.8653 65.7231 44.7143C65.5952 43.4354 66.4904 42.4122 67.7693 42.2844C69.0482 42.1565 70.1992 42.9238 70.3271 44.2027Z" fill="#263238"/>
<path d="M68.9231 38.32C68.6673 38.7037 66.749 37.4248 64.3191 37.5527C61.7613 37.6805 60.0987 39.0873 59.715 38.8316C59.5871 38.7037 59.8429 38.1921 60.6102 37.5527C61.3776 36.9132 62.6565 36.2737 64.1912 36.1459C65.7258 36.018 67.1327 36.5295 67.9 37.0411C68.7952 37.6805 69.051 38.1921 68.9231 38.32Z" fill="#263238"/>
<path d="M79.1525 56.4801C79.1525 56.3522 80.6872 55.9686 83.245 55.457C83.8844 55.3291 84.5239 55.2012 84.5239 54.6896C84.6518 54.1781 84.396 53.5386 84.0123 52.7713C83.3729 51.2366 82.6055 49.7019 81.8382 48.0394C78.7688 41.2612 76.5947 35.634 76.8505 35.5061C77.1063 35.3783 79.792 40.7496 82.8613 47.6557C83.6287 49.3183 84.2681 50.9808 85.0354 52.5155C85.2912 53.2829 85.8028 54.0502 85.547 55.0733C85.4191 55.5849 84.9076 55.9686 84.5239 56.0964C84.1402 56.2243 83.7566 56.2243 83.5008 56.3522C80.6872 56.4801 79.1525 56.608 79.1525 56.4801Z" fill="#263238"/>
<path d="M71.8626 58.6553C72.2463 58.6553 72.5021 61.341 74.932 63.1314C77.3619 64.9219 80.3034 64.4103 80.3034 64.794C80.3034 64.9219 79.6639 65.3055 78.5129 65.4334C77.3619 65.5613 75.5714 65.3055 74.0367 64.1545C72.5021 63.0035 71.8626 61.4688 71.7347 60.4457C71.351 59.2947 71.6068 58.6553 71.8626 58.6553Z" fill="#263238"/>
<path d="M68.9195 28.4734C68.6637 29.1129 66.2338 28.985 63.2923 29.4965C60.3508 30.0081 58.0488 31.0312 57.6652 30.3918C57.5373 30.136 57.793 29.4965 58.8162 28.7292C59.7114 27.9619 61.2461 27.3224 62.9086 26.9387C64.6991 26.683 66.3617 26.8108 67.3848 27.1945C68.4079 27.5782 69.0474 28.0897 68.9195 28.4734Z" fill="#263238"/>
<path d="M92.1949 29.1116C91.8112 29.751 90.0207 29.2395 87.9745 29.3674C85.9283 29.3674 84.1378 30.0068 83.7541 29.3674C83.4983 29.1116 83.7541 28.4721 84.5215 27.9606C85.2888 27.3211 86.4398 26.8096 87.9745 26.8096C89.3813 26.8096 90.6602 27.1932 91.4275 27.7048C92.067 28.3442 92.3228 28.8558 92.1949 29.1116Z" fill="#263238"/>
<path d="M94.6286 20.7994C94.6286 20.7994 89.6409 10.8239 84.6532 8.7777C78.5144 6.2199 76.3403 12.9981 70.5853 11.7192C64.8302 10.4403 58.9473 8.01037 53.3201 12.7423C47.1814 17.9858 50.3786 21.183 50.5065 28.4728C50.6344 58.0154 45.7746 66.584 43.4726 52.8998C43.2168 51.3651 38.8685 50.4699 37.9733 44.0754C36.6944 35.7625 35.6713 25.7871 37.206 19.7763C38.4849 14.6606 41.0427 11.0797 45.9025 6.98724C53.5759 0.464851 64.5744 -0.302492 72.1199 0.0811786C79.5376 0.209069 94.5007 7.88247 94.6286 20.7994Z" fill="#263238"/>
<path d="M44.3654 52.2605C44.1096 49.7027 41.8076 47.9123 39.3777 48.2959C36.3083 48.8075 33.1111 50.7258 33.6226 56.9925C34.6457 68.1189 45.6443 64.7937 45.6443 64.538C45.5164 64.2822 44.8769 56.9925 44.3654 52.2605Z" fill="#EDBF8E"/>
<path d="M42.7025 60.4456C42.7025 60.4456 42.5746 60.5735 42.1909 60.8293C41.9351 60.9572 41.2957 61.2129 40.7841 60.9572C39.5052 60.5735 38.3542 58.9109 38.0984 56.8647C37.9705 55.8416 38.0984 54.8184 38.3542 54.0511C38.61 53.1559 39.1215 52.6443 39.6331 52.3885C40.2726 52.2606 40.6562 52.5164 40.7841 52.7722C40.912 53.028 40.912 53.2838 40.912 53.2838C40.912 53.2838 41.1678 53.028 41.0399 52.6443C40.912 52.3885 40.7841 52.1328 40.5283 52.0049C40.2726 51.7491 39.8889 51.7491 39.3773 51.877C38.4821 52.0049 37.8426 52.9001 37.459 53.7953C37.0753 54.6906 36.9474 55.8416 37.0753 56.9926C37.3311 59.2946 38.7379 61.2129 40.4005 61.5966C41.1678 61.7245 41.8072 61.4687 42.1909 61.0851C42.7025 60.8293 42.8304 60.5735 42.7025 60.4456Z" fill="#6F4439"/>
<path d="M36.4343 26.8098C36.5622 26.8098 36.9459 27.8329 37.7132 29.3676C38.0969 30.135 38.6085 31.0302 39.5037 31.6696C40.3989 32.3091 41.6778 32.3091 42.9567 32.0533C44.2356 31.7975 45.3866 31.286 46.2819 30.6465C47.1771 30.0071 47.9444 29.2397 48.456 28.4724C49.607 27.0656 50.2465 26.1704 50.3744 26.2983C50.3744 26.2983 49.9907 27.3214 48.8397 28.7282C48.3281 29.4955 47.5608 30.2628 46.6655 31.0302C45.6424 31.7975 44.4914 32.3091 43.0846 32.5649C41.6778 32.8206 40.271 32.8206 39.12 32.0533C38.0969 31.286 37.5853 30.2628 37.2017 29.4955C36.5622 27.9608 36.3064 26.9377 36.4343 26.8098Z" fill="#455A64"/>
<path d="M36.8203 35.5069C36.9482 35.379 37.5877 36.2742 38.9944 36.7857C39.7618 37.0415 40.657 37.1694 41.6801 37.0415C42.7033 36.9136 43.7264 36.53 44.7495 35.8905C46.7958 34.6116 48.0747 32.6933 48.9699 31.4144C49.8651 30.1355 50.3767 29.2402 50.5046 29.2402C50.6325 29.2402 50.2488 30.2634 49.3536 31.6701C48.5862 33.0769 47.3073 34.9953 45.1332 36.4021C44.1101 37.0415 42.8312 37.5531 41.808 37.681C40.657 37.8089 39.6339 37.5531 38.8666 37.2973C37.3319 36.53 36.8203 35.5069 36.8203 35.5069Z" fill="#455A64"/>
<path d="M37.2051 41.9005C37.333 41.7726 37.9724 42.54 39.3792 42.7957C40.786 43.1794 42.8322 42.9236 44.7506 41.5168C46.541 40.2379 47.8199 38.5754 48.5873 37.2965C49.4825 36.0176 49.9941 35.2502 49.9941 35.3781C50.122 35.3781 49.7383 36.2733 48.971 37.5522C48.2036 38.8311 47.0526 40.7495 45.0064 42.0284C43.9832 42.6678 42.9601 43.1794 41.937 43.3073C40.9139 43.4352 39.8908 43.4352 39.2513 43.1794C37.8445 42.7957 37.2051 41.9005 37.2051 41.9005Z" fill="#455A64"/>
<path d="M91.3044 512.921L82.0963 544.126C82.0963 544.126 113.174 563.181 112.15 569.192L46.2871 554.869L58.4367 505.631L91.3044 512.921Z" fill="#FC5154"/>
<path d="M62.3996 537.093C60.9928 537.093 59.8418 538.244 59.8418 539.523C59.8418 540.802 61.1207 541.953 62.3996 541.953C63.8064 541.953 65.2132 540.546 65.0853 539.395C64.9574 538.116 63.4227 536.837 62.1438 537.221" fill="#E0E0E0"/>
<g opacity="0.6">
<g opacity="0.6">
<g opacity="0.6">
<g opacity="0.6">
<g opacity="0.6">
<g opacity="0.6">
<g opacity="0.6">
<g opacity="0.6">
<g opacity="0.6">
<g opacity="0.6">
<g opacity="0.6">
<g opacity="0.6">
<g opacity="0.6">
<g opacity="0.6">
<g opacity="0.6">
<path opacity="0.6" d="M46.1582 554.869L47.565 550.009L110.231 565.483C110.231 565.483 112.917 567.274 112.022 569.192L46.1582 554.869Z" fill="white"/>
</g>
</g>
</g>
</g>
</g>
</g>
</g>
</g>
</g>
</g>
</g>
</g>
</g>
</g>
</g>
<path d="M83.2464 544.125C83.1185 544.381 81.4559 544.253 79.6655 544.765C77.875 545.276 76.724 546.427 76.4682 546.3C76.2125 546.172 77.1077 544.509 79.2818 543.742C81.4559 542.974 83.3743 543.87 83.2464 544.125Z" fill="#263238"/>
<path d="M89.5126 548.218C89.5126 548.474 87.9779 548.73 86.5711 549.753C85.1643 550.776 84.5249 552.055 84.1412 551.927C83.8854 551.927 84.0133 550.136 85.8038 548.858C87.5942 547.707 89.5126 547.962 89.5126 548.218Z" fill="#263238"/>
<path d="M91.4286 556.787C91.1728 556.787 91.0449 555.253 92.3238 553.718C93.6027 552.311 95.2653 551.928 95.2653 552.183C95.3932 552.439 94.2422 553.078 93.219 554.357C92.1959 555.508 91.8122 556.787 91.4286 556.787Z" fill="#263238"/>
<path d="M84.5243 536.709C84.2685 536.965 82.9896 536.198 81.0713 535.942C79.2808 535.686 77.6182 535.942 77.6182 535.558C77.4903 535.302 79.1529 534.535 81.3271 534.791C83.3733 535.302 84.6522 536.581 84.5243 536.709Z" fill="#263238"/>
<path d="M68.4075 521.233L67.3844 553.59C67.3844 553.59 102.426 565.356 102.938 571.366L35.284 571.878L34.6445 521.361L68.4075 521.233Z" fill="#FC5154"/>
<path d="M46.4113 551.031C45.1324 551.415 44.2372 552.694 44.493 553.973C44.7487 555.252 46.2834 556.019 47.5623 555.763C48.8412 555.379 49.9922 553.845 49.6086 552.694C49.097 551.543 47.3066 550.647 46.1555 551.159" fill="#E0E0E0"/>
<g opacity="0.6">
<g opacity="0.6">
<g opacity="0.6">
<g opacity="0.6">
<g opacity="0.6">
<g opacity="0.6">
<g opacity="0.6">
<g opacity="0.6">
<g opacity="0.6">
<g opacity="0.6">
<g opacity="0.6">
<g opacity="0.6">
<g opacity="0.6">
<g opacity="0.6">
<g opacity="0.6">
<path opacity="0.6" d="M35.1562 571.878L35.2841 566.763L100.124 568.169C100.124 568.169 103.194 569.321 102.81 571.367L35.1562 571.878Z" fill="white"/>
</g>
</g>
</g>
</g>
</g>
</g>
</g>
</g>
</g>
</g>
</g>
</g>
</g>
</g>
</g>
<path d="M68.406 553.205C68.406 553.461 66.7435 553.717 65.0809 554.612C63.4183 555.508 62.651 556.914 62.2673 556.786C62.0115 556.786 62.3952 554.868 64.4415 553.717C66.4877 552.566 68.5339 552.95 68.406 553.205Z" fill="#263238"/>
<path d="M75.5695 555.891C75.6974 556.147 74.1627 556.658 73.1395 558.065C71.9885 559.344 71.7328 560.751 71.3491 560.751C71.0933 560.751 70.8375 558.96 72.2443 557.426C73.6511 555.763 75.5695 555.635 75.5695 555.891Z" fill="#263238"/>
<path d="M79.6601 563.821C79.4043 563.949 78.8928 562.414 79.788 560.624C80.5553 558.961 82.2179 558.322 82.3458 558.449C82.4737 558.705 81.5784 559.6 80.8111 561.007C80.0438 562.414 79.9159 563.693 79.6601 563.821Z" fill="#263238"/>
<path d="M67.7688 545.916C67.6409 546.172 66.1062 545.788 64.1879 545.916C62.2695 546.044 60.8628 546.555 60.7349 546.3C60.4791 546.044 62.0138 544.893 64.1879 544.765C66.362 544.637 67.8967 545.66 67.7688 545.916Z" fill="#263238"/>
<path d="M67.2538 544.382C67.1259 544.382 67.1259 545.277 67.1259 546.94C67.1259 548.602 67.1259 550.904 66.998 553.718V553.974L67.2538 554.102C70.7069 555.38 75.0551 556.915 79.5313 558.578C85.4142 560.88 90.6577 563.182 94.3665 564.972C96.157 565.867 97.5638 566.507 98.7148 567.146C99.7379 567.658 100.377 567.914 100.377 567.914C100.377 567.914 99.8658 567.53 98.8427 566.891C97.8196 566.251 96.4128 565.484 94.6223 564.461C90.9135 562.542 85.67 560.112 79.7871 557.81C75.183 556.02 70.9626 554.613 67.3817 553.334L67.6375 553.59C67.5096 550.776 67.5096 548.474 67.3817 546.812C67.3817 545.277 67.2538 544.382 67.2538 544.382Z" fill="#263238"/>
<path d="M22.877 283.998L23.2606 304.844L32.2129 404.343C32.2129 404.343 28.3762 452.685 25.9463 480.054C23.9001 503.713 28.5041 544.894 28.5041 544.894L71.6031 544.254L84.9036 406.517L93.2165 320.575L109.203 281.312L22.877 283.998Z" fill="#263238"/>
<path d="M122.247 275.557L128.898 397.308L88.2287 525.838L86.3104 532.104L60.4766 526.733L75.8234 280.289L122.247 275.557Z" fill="#263238"/>
<path d="M92.9573 321.598C92.9573 321.598 92.9573 321.853 92.9573 322.237C92.9573 322.621 92.9573 323.26 92.9573 323.9C92.9573 325.434 92.8294 327.608 92.8294 330.422C92.7015 336.049 92.4457 344.234 91.9342 354.338C90.911 374.544 88.9927 402.424 85.6675 433.246C82.4703 463.939 78.7615 491.691 76.0758 511.77C74.669 521.746 73.6459 529.931 72.8785 535.558C72.4948 538.371 72.1112 540.545 71.9833 542.08C71.8554 542.848 71.7275 543.359 71.7275 543.743C71.7275 544.126 71.5996 544.254 71.5996 544.254C71.5996 544.254 71.5996 543.999 71.5996 543.615C71.5996 543.231 71.7275 542.592 71.7275 541.952C71.8554 540.418 72.1112 538.243 72.4948 535.43C73.2622 529.803 74.2853 521.618 75.4363 511.642C77.9941 491.564 81.575 463.811 84.7723 433.118C88.0974 402.424 90.1437 374.544 91.2947 354.338C91.8063 344.234 92.1899 336.049 92.4457 330.422C92.5736 327.608 92.7015 325.434 92.7015 323.9C92.7015 323.132 92.8294 322.621 92.8294 322.237C92.9573 321.853 92.9573 321.598 92.9573 321.598Z" fill="#455A64"/>
<path d="M109.332 180.534L120.97 203.81L124.679 225.679L109.076 221.715L109.332 180.534Z" fill="#FF725E"/>
<g opacity="0.3">
<g opacity="0.3">
<path opacity="0.3" d="M109.332 180.534L120.97 203.81L124.679 225.679L109.076 221.715L109.332 180.534Z" fill="black"/>
</g>
</g>
<path d="M90.2773 313.539C90.2773 313.539 90.2773 313.667 90.4052 313.795C90.5331 313.923 90.9168 314.051 91.4284 313.795C91.812 313.539 92.0678 313.028 92.0678 312.516C92.1957 312.005 92.1957 311.365 92.3236 310.726C92.7073 308.168 93.0909 304.587 93.6025 300.623C93.9862 296.658 94.3699 293.077 94.6256 290.519C94.8814 287.961 94.8814 286.299 94.7535 286.299C94.6257 286.299 94.3699 287.834 93.9862 290.519C93.6025 293.077 93.2188 296.658 92.7073 300.623C92.3236 304.587 91.9399 308.168 91.6841 310.726C91.5562 312.005 91.6841 313.156 91.1726 313.539C90.9168 313.667 90.5331 313.667 90.4052 313.667C90.4052 313.667 90.4052 313.539 90.2773 313.539Z" fill="#455A64"/>
<path d="M85.4197 288.217C85.4197 288.217 85.1639 288.089 84.7802 288.217C84.3966 288.345 83.7571 288.473 83.2456 289.112C82.734 289.624 82.3503 290.647 82.734 291.542C83.1177 292.437 84.1408 293.332 85.4197 293.332C86.6986 293.332 87.8496 292.437 88.2333 291.542C88.617 290.647 88.4891 289.624 87.9775 288.984C87.4659 288.345 86.8265 288.089 86.4428 288.089C86.0592 288.089 85.8034 288.217 85.8034 288.217C85.8034 288.345 86.8265 288.217 87.5938 289.24C87.9775 289.751 87.9775 290.519 87.5938 291.158C87.2102 291.798 86.4428 292.437 85.5476 292.437C84.6524 292.437 83.7571 291.798 83.5013 291.158C83.1177 290.519 83.3734 289.751 83.7571 289.24C84.5245 288.345 85.5476 288.345 85.4197 288.217Z" fill="#455A64"/>
<path d="M111.889 290.391C112.145 290.391 112.657 289.112 113.041 287.449C113.296 285.787 113.168 284.38 112.913 284.38C112.657 284.38 112.529 285.659 112.273 287.321C112.017 288.984 111.762 290.391 111.889 290.391Z" fill="#455A64"/>
<path d="M107.16 290.52C107.416 290.52 107.8 289.113 108.184 287.45C108.567 285.66 108.567 284.253 108.439 284.253C108.184 284.253 107.8 285.66 107.416 287.322C107.033 288.985 106.905 290.392 107.16 290.52Z" fill="#455A64"/>
<path d="M59.4556 291.031C59.7114 291.031 60.0951 290.136 60.3508 288.985C60.6066 287.834 60.6066 286.811 60.4787 286.811C60.223 286.811 59.8393 287.706 59.5835 288.857C59.1998 289.88 59.1998 290.903 59.4556 291.031Z" fill="#455A64"/>
<path d="M54.7254 292.565C54.9812 292.565 55.6206 290.903 56.0043 288.601C56.3879 286.298 56.1322 284.38 55.8764 284.508C55.6206 284.508 55.4927 286.298 55.2369 288.601C54.8533 290.647 54.4696 292.437 54.7254 292.565Z" fill="#455A64"/>
<path d="M22.498 307.656C22.498 307.656 22.8817 307.912 23.7769 308.168C24.6722 308.423 25.9511 308.551 27.6136 308.424C30.8109 308.296 35.287 306.761 38.7401 303.308C42.0652 299.983 43.7278 295.89 44.4951 293.077C44.8788 291.67 45.1346 290.519 45.2625 289.624C45.3904 288.856 45.3904 288.345 45.3904 288.345C45.2625 288.345 44.8788 290.135 43.9836 292.949C43.0883 295.762 41.4258 299.599 38.1006 302.796C34.9034 305.994 30.5551 307.528 27.4857 307.784C24.4164 308.296 22.6259 307.528 22.498 307.656Z" fill="#455A64"/>
<path d="M86.0555 106.869L96.6704 119.147L110.994 170.43L114.703 229.644L131.84 317.12L123.016 319.806L115.342 274.789L85.6719 122.6L86.0555 106.869Z" fill="#FC5154"/>
<path d="M43.0861 86.6631L37.331 97.0222L5.35849 126.309C-1.93124 140.505 -1.1639 150.352 3.9517 165.443L27.4835 241.666L17.7638 322.876L108.949 321.725C108.949 321.725 119.564 288.218 114.193 257.908C109.589 231.69 98.3346 170.559 98.3346 170.559C83.883 139.098 65.211 111.346 43.0861 86.6631Z" fill="#FC5154"/>
<path d="M43.5977 87.3018L44.365 81.291L79.7906 110.322L86.3129 100.986L86.6966 114.031L88.1034 121.96C88.1034 121.96 100.637 160.199 102.427 168.256C104.218 176.313 109.205 228.876 109.205 228.876L79.1511 145.748L43.5977 87.3018Z" fill="#E0E0E0"/>
<path d="M78.5137 111.09C78.6416 111.09 77.8743 112.113 77.1069 114.159C76.3396 116.078 75.5722 119.147 75.7001 122.856V123.751L75.1886 122.984C72.5029 119.275 69.0499 114.799 65.0853 110.195C59.9697 104.184 54.982 99.0684 51.2731 95.4875C49.4827 93.8249 47.948 92.2902 46.797 91.2671C45.7739 90.244 45.1344 89.7324 45.2623 89.7324C45.2623 89.7324 45.9018 90.244 47.0528 91.1392C48.2038 92.0344 49.7385 93.4412 51.6568 95.2317C55.4935 98.8126 60.4812 103.8 65.7247 109.811C69.6893 114.415 73.1423 118.891 75.828 122.728L75.3165 122.856C75.1886 119.019 76.2117 116.078 76.979 114.032C77.3627 113.008 77.8743 112.369 78.1301 111.857C78.3858 111.346 78.5137 111.09 78.5137 111.09Z" fill="#263238"/>
<path d="M84.6525 121.96C84.5246 121.96 83.6294 119.914 82.7342 117.356C81.8389 114.67 81.1995 112.496 81.4553 112.496C81.5832 112.496 82.4784 114.542 83.3736 117.1C84.2688 119.658 84.9083 121.832 84.6525 121.96Z" fill="#263238"/>
<path d="M109.333 228.877C109.333 228.877 109.205 228.493 108.95 227.726C108.694 226.831 108.438 225.807 108.054 224.273C107.287 221.203 106.136 216.983 104.729 211.74C101.916 201.125 98.0791 186.545 93.8587 170.431C89.7662 154.317 85.9295 139.737 83.2438 128.995C81.9649 123.751 80.8139 119.403 80.0466 116.461C79.6629 115.055 79.4071 113.904 79.2792 113.008C79.1513 112.241 79.0234 111.857 79.0234 111.857C79.0234 111.857 79.1513 112.241 79.4071 113.008C79.6629 113.904 79.9187 114.927 80.3023 116.461C81.0697 119.531 82.2207 123.751 83.6275 128.995C86.4411 139.61 90.2778 154.189 94.4981 170.303C98.5906 186.417 102.427 200.997 105.113 211.74C106.392 216.983 107.543 221.331 108.31 224.273C108.694 225.68 108.95 226.831 109.078 227.726C109.206 228.493 109.333 228.877 109.333 228.877Z" fill="#263238"/>
<path d="M106.775 221.714C106.775 221.714 106.647 221.586 106.519 221.458C106.391 221.202 106.135 220.947 105.879 220.563C105.368 219.668 104.473 218.517 103.577 217.11C101.531 214.041 98.5896 209.564 95.0087 204.193C87.8468 193.195 77.8714 177.848 66.7449 160.838L66.6171 160.71V160.583C67.0007 159.304 67.5123 157.897 68.0238 156.49C68.9191 153.932 69.6864 151.502 70.5816 149.072L71.0932 149.456C68.6633 151.119 66.2334 152.781 63.8035 154.316L63.4198 154.572L63.2919 154.188C56.8974 138.074 50.5029 124.39 45.6431 114.67C43.2132 109.81 41.1669 105.974 39.888 103.416C39.2486 102.137 38.737 101.114 38.3533 100.346C38.2255 100.091 38.0976 99.7069 37.9697 99.579C37.8418 99.4511 37.8418 99.3232 37.8418 99.3232C37.8418 99.3232 37.9697 99.4511 37.9697 99.579C38.0976 99.8348 38.2255 100.091 38.4812 100.346C38.8649 101.114 39.5044 102.009 40.1438 103.288C41.5506 105.846 43.5969 109.682 46.1547 114.542C51.1424 124.134 57.6648 137.818 64.0593 153.932L63.5477 153.804C65.8497 152.142 68.2796 150.607 70.8374 148.945L71.7327 148.305L71.349 149.328C70.5817 151.758 69.6864 154.188 68.7912 156.746C68.2796 158.153 67.896 159.559 67.3844 160.838V160.583C78.3829 177.592 88.3584 192.939 95.5202 203.937C99.1011 209.437 101.915 213.913 103.833 216.982C104.728 218.517 105.496 219.668 106.007 220.563C106.263 220.947 106.391 221.202 106.519 221.458C106.647 221.586 106.775 221.714 106.775 221.714Z" fill="#263238"/>
<path d="M87.8473 268.65C87.8473 268.65 87.8473 268.906 87.7194 269.418C87.5915 270.057 87.3357 270.824 87.2078 271.72C86.6963 273.894 85.9289 276.963 85.0337 280.672V280.8H84.9058C74.8025 281.439 58.8163 282.335 41.0395 283.358H39.8885H39.377L39.6327 282.846C41.1674 279.265 42.5742 275.684 43.981 272.231L44.3647 272.743C44.2368 271.336 44.3647 272.359 44.2368 272.103H44.3647H44.4926H44.7483H45.3878L46.5388 271.976C47.3061 271.848 48.0735 271.848 48.8408 271.72C50.3755 271.592 51.7823 271.464 53.317 271.336C56.2584 271.08 59.072 270.824 61.6298 270.569C66.8733 270.057 71.6053 269.673 75.442 269.418C79.2787 269.162 82.348 268.906 84.65 268.65C85.6732 268.522 86.4405 268.522 87.08 268.522C87.5915 268.65 87.8473 268.65 87.8473 268.65C87.8473 268.65 87.5915 268.778 86.9521 268.778C86.3126 268.906 85.5453 268.906 84.5222 269.034C82.348 269.29 79.1508 269.546 75.3141 269.929C71.3495 270.313 66.7454 270.824 61.5019 271.336C58.8163 271.592 56.1306 271.848 53.1891 272.103C51.7823 272.231 50.2476 272.359 48.7129 272.487C47.9456 272.615 47.1782 272.615 46.4109 272.743L45.2599 272.871H44.6205H44.3647H44.2368H44.1089C44.1089 272.615 44.1089 273.51 43.981 272.231L44.3647 272.743C42.9579 276.196 41.5511 279.649 40.0164 283.358L39.6327 282.846H40.7838C58.6884 281.823 74.5467 281.056 84.65 280.544L84.3943 280.672C85.4174 276.963 86.1847 274.022 86.8242 271.848C87.08 270.824 87.3358 270.057 87.4636 269.418C87.7194 269.034 87.8473 268.65 87.8473 268.65Z" fill="#263238"/>
<path d="M108.823 224.783C108.823 224.783 109.079 225.551 109.463 227.085C109.846 228.492 110.23 230.666 110.742 233.352C111.765 238.595 113.044 245.885 114.067 254.07C115.09 262.255 115.729 269.545 115.985 274.916C116.113 277.602 116.241 279.776 116.241 281.311C116.241 282.845 116.241 283.613 116.241 283.613C116.241 283.613 116.113 282.845 115.985 281.311C115.857 279.648 115.729 277.602 115.474 275.044C114.962 269.673 114.323 262.383 113.3 254.198C112.276 246.141 111.125 238.723 110.23 233.48C109.846 230.922 109.463 228.876 109.207 227.213C108.823 225.551 108.695 224.783 108.823 224.783Z" fill="#263238"/>
<g opacity="0.3">
<g opacity="0.3">
<g opacity="0.3">
<path opacity="0.3" d="M43.601 283.358L41.8105 286.683L84.6537 285.02L87.0837 271.848L84.6537 280.544L43.601 283.358Z" fill="black"/>
</g>
</g>
</g>
<g opacity="0.3">
<g opacity="0.3">
<g opacity="0.3">
<path opacity="0.3" d="M48.457 119.146L61.5018 160.455L66.7453 155.084L64.5712 164.547L90.0213 196.904L67.2569 160.327L70.582 148.945L63.9317 153.933L48.457 119.146Z" fill="black"/>
</g>
</g>
</g>
<g opacity="0.3">
<g opacity="0.3">
<g opacity="0.3">
<path opacity="0.3" d="M10.6035 173.244C16.998 188.207 27.6129 212.379 36.0536 226.83C38.7393 231.306 41.425 236.678 45.5175 239.875C51.4005 244.479 57.5392 246.269 64.9568 246.909C82.3499 248.571 99.9987 248.316 117.264 245.374C117.264 244.735 117.264 244.095 117.264 243.456C117.264 243.456 51.0168 228.109 49.61 227.342C48.3311 226.574 10.6035 173.244 10.6035 173.244Z" fill="black"/>
</g>
</g>
</g>
<path d="M2.41667 156.746L34.645 219.796C40.1443 230.539 54.5958 241.921 63.4202 241.921L127.877 243.583L128.133 211.611L73.2678 206.239L42.3184 143.701C42.3184 143.701 34.3892 115.054 15.3336 121.576C-3.59417 128.226 2.41667 156.746 2.41667 156.746Z" fill="#FC5154"/>
<path d="M42.3193 143.829C42.3193 143.829 42.5751 144.213 42.9587 144.98C43.3424 145.747 43.854 146.898 44.6213 148.305C46.0281 151.247 48.2022 155.467 50.8879 160.838C56.2593 171.709 64.0606 187.312 73.5245 206.239L73.2687 206.112C89.3828 207.646 108.055 209.437 128.134 211.483H128.389V211.739C128.261 222.098 128.261 232.713 128.134 243.711V244.095H127.75C124.808 243.967 121.739 243.967 118.542 243.839C98.463 243.2 79.1516 242.688 61.5028 242.177C53.7015 240.002 46.9233 235.782 41.8077 230.411C39.2499 227.725 37.0758 224.784 35.2853 221.842C33.6228 218.773 32.0881 215.703 30.5534 212.762C24.5426 200.996 19.2991 190.637 14.9508 182.068C10.6025 173.5 7.14951 166.594 4.7196 161.99C3.56859 159.687 2.67336 157.897 2.03391 156.618C1.77813 155.979 1.52235 155.595 1.39446 155.211C1.26657 154.956 1.13867 154.7 1.13867 154.7C1.13867 154.7 1.26657 154.828 1.39446 155.211C1.52235 155.595 1.77813 155.979 2.1618 156.618C2.80125 157.897 3.69647 159.687 4.97537 161.99C7.40529 166.721 10.8583 173.5 15.3345 182.068C19.8106 190.637 25.0541 200.996 31.065 212.762C32.5996 215.703 34.1343 218.773 35.7969 221.842C37.4595 224.911 39.6336 227.725 42.1914 230.283C47.307 235.526 53.9573 239.619 61.6307 241.793H61.5028C79.1516 242.304 98.3351 242.816 118.542 243.455C121.739 243.583 124.808 243.583 127.75 243.711H127.622C127.75 232.713 127.75 221.97 127.878 211.739L128.134 212.122C108.055 210.076 89.3828 208.286 73.2687 206.751H73.1408L73.0129 206.623C63.6769 187.695 56.0035 171.965 50.6321 161.094C47.9464 155.595 45.9002 151.375 44.4934 148.433C43.854 147.026 43.2145 145.875 42.9587 145.108C42.4472 144.213 42.3193 143.829 42.3193 143.829Z" fill="#263238"/>
<path d="M39.3781 133.981C39.2503 134.109 38.0992 132.191 35.5414 129.889C32.9836 127.587 28.7633 125.029 23.5198 124.134C18.2763 123.238 13.5443 124.389 10.3471 125.796C7.14984 127.203 5.48727 128.61 5.35938 128.482C5.35938 128.482 5.74305 128.098 6.51039 127.459C7.27773 126.819 8.55662 126.052 10.0913 125.413C13.2886 123.878 18.1484 122.727 23.5198 123.494C28.8912 124.389 33.2394 127.075 35.6693 129.505C36.9482 130.656 37.8435 131.807 38.4829 132.574C39.1224 133.47 39.3781 133.981 39.3781 133.981Z" fill="#263238"/>
</svg>
