<svg width="213" height="572" viewBox="0 0 213 572" fill="none" xmlns="http://www.w3.org/2000/svg">
<path d="M66.7995 108.973L54.9276 137.437C54.9276 137.437 44.2 157.032 39.6228 173.481C37.6203 180.49 35.7609 187.928 43.6279 192.076C51.6378 196.224 55.6428 195.366 56.358 195.366H56.501C61.5072 195.366 65.7983 192.076 67.0856 187.213L83.3916 120.415L66.7995 108.973Z" fill="#F2D19C"/>
<path d="M133.313 101.82C133.743 96.6709 136.889 91.5216 141.753 89.9482L147.474 93.2381C153.481 95.9557 156.628 103.68 154.34 109.83C161.777 113.978 164.209 124.849 159.489 132.001C163.208 133.717 164.781 138.151 164.638 142.156C164.638 146.161 163.208 150.166 162.922 154.171C162.636 157.318 162.922 160.465 162.35 163.468C161.777 166.472 160.061 169.619 157.2 170.763C154.197 172.05 150.478 170.62 148.332 168.188C146.187 165.757 145.042 162.467 144.613 159.177C143.04 149.88 145.042 140.154 142.754 130.999C141.466 125.993 139.035 121.416 136.889 116.696C134.601 112.119 132.741 106.969 133.313 101.82Z" fill="#263238"/>
<path d="M135.884 101.25C142.321 101.25 148.471 97.5307 151.618 91.8093C154.622 86.231 154.479 78.9362 150.903 73.5008C150.331 72.6426 149.758 71.9275 148.9 71.4984C147.041 70.7832 145.038 72.3566 143.608 73.6439C140.032 77.0767 136.599 80.5096 133.023 83.9424" fill="#263238"/>
<path d="M135.599 87.9468C143.466 84.2279 149.76 75.3597 152.048 66.7776C154.337 58.3385 151.762 41.1743 149.474 32.7352C146.756 22.4367 142.465 35.739 138.889 36.7402C136.743 37.4554 135.313 39.3149 134.741 41.4604C134.169 43.6059 134.169 45.7514 134.312 48.04C134.741 61.3422 135.17 74.6445 135.599 87.9468Z" fill="#263238"/>
<path d="M115.433 3.84195C102.131 -3.3098 91.5465 0.981258 86.3973 4.98624C81.248 8.99122 78.1012 15.1417 76.2418 21.4353C74.3823 27.7288 73.5241 34.3084 71.9507 40.602C70.6634 46.0373 70.6634 46.3234 69.9482 51.7587C69.2331 57.194 69.3761 66.9204 72.2368 71.7836C74.9545 76.3607 77.8152 80.3657 82.2493 83.3695C83.8227 84.3707 85.6821 85.515 87.5415 84.9428C88.8289 84.5137 89.8301 83.3695 90.5453 82.2252C104.992 61.6281 116.292 39.0286 124.015 15.1417" fill="#263238"/>
<path d="M130.167 19.2895L107.138 9.99219L101.131 10.7074C87.5423 10.7074 78.245 25.583 78.102 36.5967C77.959 48.7547 78.2451 63.6303 80.1045 72.6416C83.9665 90.664 97.9839 92.3804 97.9839 92.3804C97.9839 92.3804 97.8409 97.2436 97.6978 103.394C97.4118 114.265 106.28 123.133 117.151 122.99C127.592 122.847 135.888 114.265 135.888 103.966L136.174 25.726C136.031 22.1502 133.457 19.4325 130.167 19.2895Z" fill="#F2D19C"/>
<path d="M81.6757 50.1849C81.9618 50.471 83.6783 49.0406 86.2529 48.8976C88.8275 48.7546 90.6869 49.8989 90.973 49.6128C91.116 49.4698 90.83 48.8976 89.9718 48.3255C89.1136 47.7533 87.8263 47.3242 86.2529 47.3242C84.6795 47.4673 83.3922 48.0394 82.677 48.6115C81.8188 49.4698 81.5327 50.0419 81.6757 50.1849Z" fill="#263238"/>
<path d="M98.2689 62.3432C98.2689 62.2002 96.6955 62.0571 94.1209 61.7711C93.4057 61.7711 92.8336 61.628 92.6905 61.1989C92.5475 60.7698 92.6905 60.0547 92.9766 59.3395C93.5487 57.7661 94.1209 56.0497 94.693 54.3333C96.9816 47.1815 98.555 41.4601 98.2689 41.3171C97.9828 41.174 95.8373 46.8954 93.5487 54.0472C92.9766 55.7636 92.4044 57.48 91.9753 59.0534C91.8323 59.7686 91.4032 60.6268 91.8323 61.628C91.9753 62.0571 92.5475 62.4863 92.9766 62.4863C93.4057 62.6293 93.6918 62.6293 94.1209 62.6293C96.6955 62.4863 98.2689 62.4863 98.2689 62.3432Z" fill="#263238"/>
<path d="M97.9829 92.094C97.9829 92.094 110.284 92.2371 122.013 84.3701C122.013 84.3701 116.148 97.3863 97.8398 96.5281L97.9829 92.094Z" fill="#E2BF8A"/>
<path d="M99.8442 67.7783C100.845 66.348 102.276 65.6328 103.849 65.6328C104.993 65.6328 106.138 66.0619 106.853 67.0632C107.568 68.0644 107.711 69.4948 106.996 70.496C106.281 71.6403 104.85 72.0694 103.563 71.7833C102.276 71.4973 101.274 70.7821 100.273 69.9239C99.9872 69.6378 99.7011 69.4948 99.5581 69.2087C99.415 68.9226 99.5581 68.0644 99.8442 67.7783Z" fill="#EA7171"/>
<path d="M105.706 63.773C105.277 63.773 105.42 66.4907 103.132 68.4932C100.843 70.4957 97.9824 70.3526 97.9824 70.7817C97.9824 70.9248 98.6976 71.2108 99.8419 71.2108C100.986 71.2108 102.846 70.7817 104.133 69.4944C105.563 68.2071 105.992 66.6337 106.135 65.4894C106.278 64.3452 105.849 63.63 105.706 63.773Z" fill="#263238"/>
<path d="M83.2491 35.5953C83.6782 36.1675 85.3946 35.4523 87.5401 35.3092C89.6856 35.1662 91.402 35.4523 91.8311 34.8802C91.9742 34.5941 91.6881 34.0219 90.8299 33.5928C90.1148 33.1637 88.6844 32.7346 87.2541 32.8777C85.8237 33.0207 84.6794 33.5928 83.9642 34.165C83.2491 34.7371 83.106 35.4523 83.2491 35.5953Z" fill="#263238"/>
<path d="M115.004 49.042C114.718 49.328 113.001 48.0407 110.427 48.0407C107.852 48.0407 106.136 49.328 105.85 49.042C105.707 48.8989 105.993 48.3268 106.851 47.7546C107.566 47.1825 108.996 46.6104 110.57 46.6104C112.143 46.6104 113.43 47.1825 114.289 47.7546C114.861 48.4698 115.147 48.8989 115.004 49.042Z" fill="#263238"/>
<path d="M115.292 34.4516C114.863 35.0237 113.146 34.4516 111.001 34.4516C108.855 34.3085 107.139 34.8807 106.71 34.3086C106.567 34.0225 106.853 33.4503 107.568 32.8782C108.283 32.3061 109.57 31.877 111.001 31.877C112.431 31.877 113.718 32.4491 114.434 33.0212C115.292 33.5934 115.578 34.1655 115.292 34.4516Z" fill="#263238"/>
<path d="M109.853 7.9894C115.718 5.70084 124.586 6.41601 129.592 10.278C134.598 14.1399 137.745 20.0044 138.889 26.1549C140.034 32.3054 138.46 41.4596 136.887 47.4671C127.447 35.3091 117.72 21.2917 108.709 8.99065L109.853 7.9894Z" fill="#263238"/>
<path d="M105.423 2.55478C73.5258 -1.87931 76.3865 46.3235 76.3865 46.3235C79.5333 28.5872 104.278 9.9926 104.278 9.9926L109.285 9.13439L105.423 2.55478Z" fill="#263238"/>
<path d="M134.172 56.1919C134.172 54.9045 135.459 51.6147 136.89 51.3287C140.465 50.6135 146.902 50.6135 147.474 59.6247C148.189 72.0687 135.602 70.2093 135.602 69.7802C135.459 69.4941 134.458 60.912 134.172 56.1919Z" fill="#F2D19C"/>
<path d="M137.32 64.9158C137.32 64.9158 137.606 65.0588 137.892 65.2018C138.322 65.3449 138.894 65.4879 139.466 65.2018C140.753 64.6297 141.754 62.4842 141.611 60.1956C141.611 59.0513 141.325 58.0501 140.896 57.1919C140.467 56.3337 139.895 55.7615 139.18 55.6185C138.465 55.4755 138.035 55.9046 137.892 56.3337C137.749 56.6197 137.892 56.9058 137.749 56.9058C137.749 56.9058 137.463 56.7628 137.606 56.1906C137.606 55.9046 137.749 55.6185 138.035 55.3324C138.322 55.0463 138.751 54.9033 139.18 54.9033C140.181 54.9033 141.039 55.7615 141.611 56.7628C142.184 57.764 142.47 58.9083 142.613 60.1956C142.613 62.7702 141.468 65.0588 139.752 65.774C138.894 66.06 138.179 65.774 137.749 65.4879C137.32 65.2018 137.32 64.9158 137.32 64.9158Z" fill="#F2D19C"/>
<path d="M148.757 26.4416C145.611 18.0025 139.174 10.8508 131.736 5.70153C127.731 2.98387 123.297 0.695305 118.434 0.123164C113.571 -0.448976 108.278 0.981373 105.132 4.55725L104.273 5.41547C109.709 17.5734 113.571 27.872 120.722 39.1717C123.297 43.3198 124.441 57.4802 125.014 62.3434C127.159 78.9355 136.17 86.0872 136.17 86.0872C155.909 86.2303 152.047 35.0237 148.757 26.4416Z" fill="#263238"/>
<path d="M139.174 84.3703C139.174 84.5134 140.175 84.2273 141.606 83.6552C143.036 82.94 144.895 81.7957 146.612 79.9362C148.185 78.0768 149.329 76.2173 149.902 74.6439C150.474 73.2136 150.617 72.2123 150.474 72.0693C150.188 71.9263 149.186 75.7882 146.04 79.2211C142.75 82.6539 139.031 84.0843 139.174 84.3703Z" fill="#455A64"/>
<path d="M141.606 100.535C141.606 100.821 144.18 100.535 146.755 98.6753C149.329 96.8158 150.188 94.3842 150.045 94.2412C149.759 94.0981 148.614 96.2437 146.326 97.9601C143.894 99.6765 141.463 100.249 141.606 100.535Z" fill="#455A64"/>
<path d="M149.905 115.696C150.048 115.839 151.192 114.551 152.479 112.835C153.624 111.118 154.482 109.688 154.339 109.545C154.196 109.402 153.052 110.689 151.764 112.406C150.477 114.122 149.619 115.552 149.905 115.696Z" fill="#455A64"/>
<path d="M156.198 134.433C156.341 134.576 157.199 133.861 158.2 132.86C159.058 131.859 159.631 130.858 159.488 130.715C159.345 130.571 158.486 131.287 157.485 132.288C156.627 133.432 156.055 134.29 156.198 134.433Z" fill="#455A64"/>
<path d="M152.479 54.6191C152.479 54.6191 151.621 54.047 150.19 53.1888C149.475 52.7597 148.474 52.3305 147.473 51.6154C146.471 50.9002 145.184 50.3281 143.897 49.3268C141.322 47.6104 138.318 45.4649 135.172 42.7472C132.025 40.0295 128.878 36.8828 125.731 33.3069C122.727 29.731 120.01 26.0121 117.864 22.4362C115.719 18.8603 114.002 15.5705 112.715 12.7098C112 11.2795 111.571 9.99217 111.142 8.84789C110.713 7.70361 110.283 6.70237 109.997 5.84416C109.425 4.12773 109.139 3.26953 108.996 3.26953C108.996 3.26953 109.139 4.27077 109.711 5.84416C109.997 6.70237 110.283 7.70361 110.713 8.84789C111.142 9.99217 111.571 11.4225 112.286 12.8529C113.43 15.7136 115.147 19.1464 117.292 22.7223C119.438 26.2982 122.012 30.0171 125.159 33.736C128.306 37.3119 131.596 40.6017 134.742 43.3193C137.889 46.037 141.036 48.1825 143.611 49.7559C144.898 50.6141 146.185 51.3293 147.33 51.9015C148.474 52.4736 149.332 53.0457 150.19 53.3318C151.478 54.333 152.479 54.6191 152.479 54.6191Z" fill="#455A64"/>
<path d="M121.729 39.7444C121.729 39.7444 122.015 40.1735 122.587 40.8887C123.159 41.6038 124.16 42.6051 125.447 43.7494C127.879 46.1809 131.598 49.0416 136.175 51.7593C140.752 54.477 145.043 56.1934 148.333 57.1947C149.906 57.7668 151.337 58.0529 152.195 58.3389C153.196 58.482 153.625 58.625 153.625 58.625C153.625 58.482 151.623 57.9098 148.476 56.7655C145.329 55.6213 141.038 53.7618 136.461 51.0441C132.027 48.4695 128.308 45.4658 125.734 43.3203C123.302 41.1747 121.872 39.6013 121.729 39.7444Z" fill="#455A64"/>
<path d="M75.384 55.6204C75.384 55.6204 75.241 54.6192 74.8119 52.9028C74.5258 51.1864 74.0967 48.6117 73.9537 45.465C73.6676 39.1714 74.9549 30.1602 79.8181 21.8642C84.6813 13.5681 91.9761 7.98977 97.5545 5.12907C100.415 3.69871 102.704 2.69747 104.42 2.26836C106.137 1.69622 106.995 1.41016 106.995 1.41016C106.995 1.41016 106.709 1.41015 106.28 1.55319C105.851 1.69622 105.135 1.69623 104.277 1.9823C102.561 2.4114 100.129 3.26962 97.1254 4.69997C91.404 7.41763 83.9661 12.996 78.9599 21.4351C73.9537 30.0172 72.8094 39.1714 73.0954 45.465C73.2385 48.6117 73.8106 51.1864 74.2397 52.9028C74.3828 53.761 74.6688 54.4762 74.8119 54.9053C75.241 55.3344 75.384 55.6204 75.384 55.6204Z" fill="#455A64"/>
<path d="M115.289 54.1903C112.715 53.9042 110.14 54.3334 107.852 55.4776C107.136 55.9067 106.278 56.4789 106.564 57.3371C106.707 58.0523 107.422 58.1953 108.138 58.4814C110.998 59.1965 114.002 59.1965 116.863 58.7674C117.864 58.6244 118.865 58.1953 119.151 57.3371C119.437 56.6219 118.865 55.7637 118.15 55.3346C117.578 54.7624 116.148 54.1903 115.289 54.1903Z" fill="#F9A991"/>
<path d="M88.9713 55.6211C86.3967 54.4768 83.393 54.6198 80.8183 55.7641C80.5323 55.9072 80.2462 56.0502 79.9601 56.3363C79.8171 56.6223 79.674 56.9084 79.8171 57.1945C79.9601 57.6236 80.3892 57.7666 80.8183 57.7666C83.2499 58.3388 85.8245 58.1957 88.1131 57.6236C88.6852 57.4805 89.1144 57.1945 89.4004 56.7654C89.6865 56.4793 89.6865 56.0502 88.9713 55.6211Z" fill="#F9A991"/>
<path d="M122.155 442.387L124.3 553.811L97.2664 556.672L78.6719 443.245L93.2614 424.937L122.155 442.387Z" fill="#F2D19C"/>
<path d="M93.9776 551.237V553.096C93.9776 553.096 63.2251 565.826 63.082 571.691L124.301 570.689V550.235C115.29 554.526 104.562 555.242 93.9776 551.237Z" fill="#FC5154"/>
<path d="M124.301 571.977V567.399L65.0849 568.401C65.0849 568.401 62.6533 570.117 62.9394 571.977H124.301Z" fill="#263238"/>
<path d="M146.61 438.669L196.387 460.839L190.379 487.444C190.379 487.444 127.73 468.849 107.276 464.701C86.8217 460.553 53.6376 455.261 44.1973 435.379L146.61 438.669Z" fill="#F2D19C"/>
<path d="M185.658 487.873L187.375 488.302C187.375 488.302 191.38 520.914 196.815 522.773L212.12 464.129L192.667 458.693C194.526 468.563 192.381 478.861 185.658 487.873Z" fill="#FC5154"/>
<path d="M212.119 464.128L207.399 463.127L194.525 519.626C194.525 519.626 194.954 522.487 196.957 522.773L212.119 464.128Z" fill="#263238"/>
<path d="M44.625 436.094C44.625 436.094 44.768 436.666 45.1971 437.524C45.6262 438.382 46.3414 439.67 47.6287 441.1C50.0603 443.961 54.3514 447.394 59.9298 450.826C62.7905 452.543 66.0803 454.116 69.7992 455.403C73.5181 456.834 77.5231 457.692 81.8141 458.693C90.2532 460.839 99.5505 463.27 109.42 465.845C128.873 470.994 146.609 475.714 159.482 479.004C165.776 480.578 171.068 482.008 174.644 482.866C176.36 483.295 177.791 483.581 178.792 483.867C179.793 484.154 180.222 484.154 180.222 484.154C180.222 484.154 179.793 484.011 178.792 483.724C177.791 483.438 176.36 483.009 174.644 482.58C170.925 481.579 165.776 480.149 159.482 478.432C146.752 474.999 129.016 470.136 109.563 464.987C99.8365 462.412 90.5393 459.981 81.9572 457.835C77.6661 456.834 73.6611 455.976 69.9422 454.545C66.3664 453.258 62.9335 451.828 60.2158 450.111C54.6374 446.678 50.3464 443.389 47.9148 440.671C45.1972 438.096 44.625 436.094 44.625 436.094Z" fill="#EB996E"/>
<path d="M97.8364 104.253C98.2655 103.251 74.2356 124.134 67.656 142.014C63.3649 153.743 55.6411 193.649 55.498 193.793L53.0664 217.965L120.15 222.686L122.009 217.965L127.016 204.52L133.881 184.209C133.881 184.209 150.473 158.463 153.763 147.449C157.911 133.718 151.045 119.7 151.045 119.7L135.884 102.536L97.8364 104.253Z" fill="#FC5154"/>
<path d="M135.886 103.68C135.886 103.68 139.605 96.8142 137.316 93.8105C135.457 91.3789 103.131 94.3826 96.5512 95.8129C92.6893 96.6712 96.6942 105.253 96.6942 105.253L135.886 103.68Z" fill="#FC5154"/>
<path d="M96.5449 104.395C96.5449 104.395 97.117 104.538 98.1183 104.824C99.1195 105.11 100.55 105.253 102.409 105.539C105.985 105.968 111.134 106.397 116.713 106.111C122.291 105.825 127.297 104.967 130.873 104.109C132.59 103.679 134.02 103.25 135.021 102.964C136.023 102.678 136.452 102.392 136.452 102.392C136.452 102.249 134.163 102.821 130.73 103.536C127.154 104.252 122.148 104.967 116.713 105.253C111.134 105.539 106.128 105.253 102.552 104.967C98.8335 104.538 96.688 104.252 96.5449 104.395Z" fill="#263238"/>
<g opacity="0.3">
<g opacity="0.3">
<g opacity="0.3">
<path opacity="0.3" d="M117.432 105.539C122.724 105.11 128.875 104.395 134.024 103.107C126.3 107.255 117.003 109.401 108.278 108.257C104.988 107.828 101.698 106.969 99.5527 104.538C104.559 106.54 112.14 105.968 117.432 105.539Z" fill="black"/>
</g>
</g>
</g>
<g opacity="0.3">
<g opacity="0.3">
<g opacity="0.3">
<path opacity="0.3" d="M64.7949 196.939C67.0835 202.946 72.0897 207.952 78.0972 210.241C84.1046 212.529 91.1134 212.1 96.8348 209.24C103.414 205.807 107.848 199.513 112.998 194.221C119.005 187.927 126.014 182.778 132.164 176.771C138.315 170.763 143.75 163.468 145.467 155.029C136.312 165.614 126.443 173.624 114.571 179.917C98.6942 188.357 81.244 189.501 64.7949 196.939Z" fill="black"/>
</g>
</g>
</g>
<path d="M68.089 67.7799C68.089 67.7799 67.2308 66.4926 65.5144 68.9242C63.798 71.3558 59.793 89.3782 59.793 89.3782L66.8017 108.974L75.8129 118.271L68.089 67.7799Z" fill="#F2D19C"/>
<path d="M66.7982 108.973C66.7982 108.973 66.7982 108.83 66.6552 108.687C66.5122 108.401 66.3691 108.115 66.2261 107.686C65.797 106.685 65.3679 105.397 64.7958 103.681C63.5084 100.248 61.792 95.3849 59.6465 89.3774V89.2344V89.0913C60.3617 85.6585 61.2199 81.9396 62.2211 77.9346C62.7933 75.9321 63.2224 73.9296 63.9375 71.7841C64.2236 70.7828 64.6527 69.6386 65.2248 68.6373C65.5109 68.2082 65.9401 67.6361 66.3692 67.35C66.6552 67.207 66.9413 66.9209 67.3704 66.9209C67.7995 66.9209 68.0856 67.0639 68.3716 67.493V67.6361C68.5147 68.4943 68.6577 69.4955 68.8007 70.4968C70.8032 83.656 72.5196 95.5279 73.807 104.253C74.3791 108.544 74.9512 111.977 75.2373 114.552C75.3804 115.696 75.5234 116.697 75.6664 117.412C75.8095 117.984 75.8095 118.414 75.8095 118.414C75.8095 118.414 75.6664 118.127 75.5234 117.412C75.3804 116.697 75.2373 115.839 75.0943 114.695C74.6652 112.263 74.0931 108.687 73.3779 104.539C72.0906 95.814 70.2311 83.9421 68.0856 70.7828C67.9425 69.7816 67.7995 68.7804 67.6565 67.9221V68.0652C67.5134 67.7791 67.0843 67.7791 66.6552 68.0652C66.2261 68.3513 65.9401 68.7803 65.654 69.2094C65.0818 70.0677 64.7957 71.2119 64.5097 72.2132C63.7945 74.2157 63.2224 76.3612 62.7933 78.3637C61.792 82.3687 60.9338 86.0876 60.0756 89.5204V89.3774C62.0781 95.2418 63.7945 100.248 65.0818 103.681C65.654 105.397 66.0831 106.685 66.3692 107.686C66.5122 108.115 66.6552 108.401 66.6552 108.687C66.7982 108.83 66.9413 108.973 66.7982 108.973Z" fill="#EB996E"/>
<path d="M88.3997 101.25L89.401 164.901L106.422 147.307L140.751 157.177C140.751 157.177 97.697 207.096 83.1074 208.526C79.1024 208.955 72.8089 205.952 70.5204 204.378C66.2293 201.375 63.7977 196.225 64.3699 191.076L71.2355 117.699L88.3997 101.25Z" fill="#F2D19C"/>
<path d="M65.2285 183.066L71.6651 118.987C71.6651 118.987 65.3716 88.8062 65.3716 85.2303C65.3716 81.6544 64.7994 68.2091 68.0892 66.4927C68.0892 66.4927 67.6601 59.627 70.3778 59.77C73.0955 59.9131 73.5246 63.632 73.5246 63.632C73.5246 63.632 73.9537 60.0561 75.5271 59.77C77.8156 59.3409 78.6738 62.6308 78.6738 62.6308C78.6738 62.6308 81.3915 61.4865 82.8218 66.2066C82.8218 66.2066 90.2597 89.9504 91.2609 91.5238C92.2622 93.2403 96.2671 89.6644 96.2671 89.6644C96.2671 89.6644 101.13 82.2266 101.989 81.9405C102.847 81.7975 104.563 81.9405 104.563 81.9405C104.563 81.9405 100.415 93.6694 98.1266 96.8161C95.695 99.9629 89.9736 110.404 89.9736 110.404L89.4015 164.472" fill="#F2D19C"/>
<path d="M89.5445 164.757C89.5445 164.757 89.5445 164.471 89.5445 163.756C89.5445 163.041 89.5445 162.183 89.5445 160.895C89.5445 158.321 89.5445 154.745 89.5445 150.025C89.6875 140.584 89.6875 127.139 89.8306 110.547C92.2622 106.399 94.6938 101.822 97.6975 97.3877C99.2709 95.2422 100.272 92.6675 101.416 90.0929C102.418 87.5183 103.562 84.8006 104.42 82.0829L104.706 82.512C104.277 82.512 103.705 82.512 103.276 82.512C102.99 82.512 102.847 82.512 102.561 82.512C102.418 82.512 102.275 82.512 102.275 82.512C102.132 82.512 102.132 82.512 102.132 82.6551C101.416 83.2272 100.844 84.0854 100.272 84.9436C99.1278 86.66 97.8405 88.3765 96.6962 90.0929C96.1241 90.665 95.552 91.0941 94.8368 91.5232C94.1216 91.9523 93.5495 92.3814 92.5482 92.5245C92.1191 92.5245 91.547 92.3814 91.2609 91.9523C90.9749 91.5232 90.8318 91.2372 90.6888 90.8081C90.4027 90.0929 90.1166 89.3777 89.8306 88.6625C88.8293 85.6588 87.8281 82.6551 86.8268 79.5083C85.8256 76.3615 84.8243 73.3578 83.8231 70.068C83.2509 68.4946 82.8219 66.7782 82.2497 65.3478C81.9637 64.6326 81.5345 63.9175 80.9624 63.4884C80.3902 62.9162 79.532 62.7732 78.9599 63.0593L78.6739 63.2023L78.5308 62.9162C78.3878 62.4871 78.1017 61.915 77.8156 61.4859C77.5296 61.0568 77.1005 60.6277 76.5283 60.3416C76.2423 60.1985 75.9562 60.1985 75.8132 60.1985C75.5271 60.1985 75.384 60.3416 75.241 60.4846C74.5258 61.3428 74.2397 62.6301 73.9537 63.7744L73.5246 65.92L73.2385 63.7744C73.0955 62.7732 72.8094 61.6289 72.0942 60.9137C71.5221 60.1985 70.2348 59.7695 69.6626 60.4846C69.0905 61.1998 68.8044 62.3441 68.6614 63.3453C68.5184 64.3466 68.5183 65.4908 68.5183 66.4921V66.6351L68.3753 66.7782C67.5171 67.3503 67.088 68.4946 66.6589 69.6389C66.3728 70.7831 66.0867 71.9274 66.0867 73.2147C65.8007 75.6463 65.8007 77.9349 65.8007 80.3665C65.8007 81.5108 65.8007 82.6551 65.8007 83.9424C65.8007 85.0867 65.8007 86.2309 66.0867 87.3752C66.3728 89.6638 66.8019 91.9523 67.231 94.0979C68.8044 102.966 70.5208 111.262 72.0942 119.129C70.0917 138.439 68.5183 154.459 67.374 165.615C66.8019 171.194 66.3728 175.628 65.9437 178.632C65.8007 180.062 65.6576 181.206 65.5146 182.064C65.3716 182.78 65.3716 183.209 65.3716 183.209C65.3716 183.209 65.3716 182.78 65.5146 182.064C65.5146 181.206 65.6577 180.062 65.8007 178.632C66.0868 175.628 66.5159 171.194 67.088 165.615C68.2323 154.459 69.8056 138.439 71.6651 119.129V119.272C70.0917 111.548 68.3753 103.109 66.6589 94.2409C66.2298 92.0954 65.8007 89.8068 65.5146 87.5182C65.3716 86.374 65.2285 85.2297 65.2285 84.0854C65.2285 82.9411 65.2285 81.7969 65.2285 80.5095C65.2285 78.0779 65.3716 75.7894 65.5146 73.3578C65.6576 72.2135 65.8007 70.9262 66.2298 69.7819C66.3728 69.2098 66.6589 68.6376 66.945 68.0655C67.231 67.4933 67.6601 66.9212 68.2323 66.4921L68.0892 66.7782C68.0892 65.6339 68.0892 64.6326 68.2323 63.4884C68.2323 62.9162 68.3753 62.3441 68.5183 61.7719C68.6614 61.1998 68.9475 60.6277 69.3766 60.1985C69.8057 59.7694 70.6639 59.4834 71.236 59.7695C71.8081 59.9125 72.3803 60.1986 72.8094 60.6277C73.6676 61.4859 73.9537 62.6301 74.0967 63.9175H73.3815C73.6676 62.6301 73.8106 61.3428 74.8119 60.1985C75.098 59.9125 75.5271 59.7695 75.8132 59.7695C76.2423 59.7695 76.5283 59.7694 76.9574 59.9125C77.6726 60.1986 78.1017 60.7707 78.5308 61.3428C78.8169 61.915 79.103 62.4871 79.246 63.0593L78.8169 62.7732C79.8181 62.3441 80.8194 62.6302 81.5346 63.3453C82.2497 63.9175 82.6788 64.7757 83.1079 65.4909C83.68 67.0642 84.1092 68.6376 84.6813 70.354C85.6825 73.5008 86.6838 76.6476 87.685 79.7944C88.6863 82.9411 89.6875 85.9449 90.6888 88.8056C90.9749 89.5208 91.2609 90.2359 91.547 90.9511C91.6901 91.3802 91.8331 91.6663 91.9761 91.9523C92.1191 92.2384 92.4052 92.2384 92.6913 92.2384C93.4065 92.2384 93.9786 91.8093 94.6938 91.3802C95.2659 90.9511 95.9811 90.522 96.4102 90.0929C97.5545 88.3765 98.6988 86.517 99.9861 84.9436C100.558 84.0854 101.13 83.3702 101.989 82.512C102.132 82.369 102.275 82.226 102.418 82.226C102.561 82.226 102.704 82.226 102.847 82.226C103.133 82.226 103.419 82.226 103.562 82.226C104.134 82.226 104.563 82.226 104.992 82.226H105.421L105.278 82.6551C104.277 85.3727 103.276 88.0904 102.132 90.665C101.559 91.9523 100.987 93.2397 100.415 94.527C99.843 95.8143 99.1279 96.9586 98.4127 98.1029C95.4089 102.537 92.9774 106.971 90.5458 111.119V110.976C90.2597 127.425 90.1167 141.013 89.9736 150.454C89.8306 155.174 89.8306 158.75 89.8306 161.324C89.8306 162.612 89.8306 163.47 89.8306 164.185C89.5445 164.471 89.5445 164.757 89.5445 164.757Z" fill="#EB996E"/>
<path d="M140.754 114.552C129.454 110.404 122.303 115.839 112.576 127.997C102.993 140.155 99.1309 148.737 99.1309 148.737L133.316 170.765C133.316 170.765 154.772 141.585 156.202 136.007C157.918 130.286 153.627 119.129 140.754 114.552Z" fill="#FC5154"/>
<path d="M83.1075 87.5185C82.9644 87.5185 82.3923 86.2312 81.6771 84.0857C80.9619 81.9401 80.1037 78.7934 79.5316 75.3605C78.9594 71.9277 78.6734 68.7809 78.5304 66.4923C78.3873 64.2038 78.5304 62.7734 78.5304 62.7734C78.6734 62.7734 78.8164 64.2038 78.9595 66.4923C79.2455 68.7809 79.5316 71.9277 80.1038 75.2175C80.6759 78.6503 81.3911 81.6541 81.9632 83.7996C82.8214 86.0882 83.2505 87.3755 83.1075 87.5185Z" fill="#EB996E"/>
<path d="M76.8124 87.9464C76.6694 87.9464 76.3833 86.6591 75.9542 84.5136C75.5251 82.3681 74.9529 79.3643 74.3808 76.0745C73.9517 72.7847 73.6656 69.781 73.5226 67.6354C73.3795 65.4899 73.5226 64.0596 73.5226 64.0596C73.6656 64.0596 73.6656 65.3469 73.9517 67.4924C74.0947 69.6379 74.5238 72.6417 74.9529 75.9315C75.3821 79.0783 75.9542 81.939 76.2403 84.3705C76.8124 86.6591 76.9555 87.9464 76.8124 87.9464Z" fill="#EB996E"/>
<path d="M70.2325 87.6614C70.0895 87.6614 69.6604 86.5171 69.2313 84.6576C68.8022 82.7982 68.2301 80.0805 67.944 77.2198C67.658 74.2161 67.6579 71.6414 67.801 69.639C67.944 67.7795 68.087 66.4922 68.087 66.4922C68.2301 66.4922 68.087 71.2123 68.5161 77.0768C68.8022 79.9375 69.2313 82.6552 69.5174 84.5146C70.0895 86.5171 70.3756 87.6614 70.2325 87.6614Z" fill="#EB996E"/>
<path d="M90.4074 179.489C90.2643 179.489 90.9795 176.057 90.6934 171.909C90.5504 167.761 89.2631 164.471 89.5491 164.328C89.6922 164.185 91.1225 167.475 91.4086 171.909C91.6947 176.057 90.5504 179.489 90.4074 179.489Z" fill="#EB996E"/>
<path d="M156.626 134.147C156.626 134.147 156.769 135.291 156.197 137.437C155.625 139.582 154.338 142.3 152.049 145.59C147.758 152.026 141.465 161.037 133.741 171.05L133.598 171.336L133.312 171.193C129.021 168.332 124.443 165.328 119.723 162.182C111.999 157.032 104.848 152.312 98.4111 148.021L98.125 147.878L98.268 147.592C103.56 138.867 108.853 132.001 112.572 127.281C114.431 124.993 116.004 123.133 117.149 121.846C117.721 121.274 118.15 120.845 118.436 120.415C118.722 120.129 118.865 119.986 118.865 119.986C118.865 119.986 118.722 120.129 118.436 120.558C118.15 120.988 117.721 121.417 117.292 121.989C116.29 123.276 114.717 125.136 112.858 127.424C109.139 132.144 103.989 139.153 98.6972 147.735L98.5541 147.306C104.991 151.597 112.285 156.317 119.866 161.466C124.587 164.613 129.164 167.617 133.312 170.478L132.883 170.621C140.606 160.608 146.9 151.74 151.334 145.304C153.623 142.157 155.053 139.439 155.625 137.294C156.626 135.291 156.483 134.147 156.626 134.147Z" fill="#263238"/>
<path d="M122.724 222.972L121.58 232.841C121.58 232.841 138.744 265.453 138.744 282.903C138.744 300.354 146.754 439.527 146.754 439.527C146.754 439.527 53.3521 444.819 43.3396 435.665C33.4702 426.511 33.4702 426.511 33.4702 426.511L0 417.356L52.2078 226.977V216.821L122.724 222.972Z" fill="#263238"/>
<path d="M58.79 270.173C58.79 270.173 58.79 270.316 58.647 270.602C58.647 270.888 58.5039 271.317 58.5039 271.746C58.3609 272.891 58.0748 274.321 57.9318 276.18C57.3596 280.042 56.6445 285.621 55.6432 292.343C53.6407 305.932 50.78 324.812 47.0611 345.409C43.3422 366.149 39.4802 384.744 36.4765 398.189C35.0462 404.912 33.7588 410.204 32.9006 414.066C32.4715 415.926 32.1854 417.356 31.8994 418.357C31.7563 418.786 31.7563 419.215 31.6133 419.501C31.6133 419.787 31.6133 419.931 31.6133 419.931C31.6133 419.931 31.6133 419.787 31.7563 419.501C31.8994 419.215 31.8994 418.786 32.0424 418.357C32.3285 417.356 32.7576 415.926 33.1867 414.066C34.1879 410.347 35.4753 404.912 37.0486 398.189C40.1954 384.744 44.2004 366.149 47.9193 345.409C51.6382 324.669 54.4989 305.932 56.2153 292.2C57.0736 285.335 57.7887 279.899 58.2178 276.037C58.3609 274.178 58.5039 272.747 58.647 271.603C58.647 271.174 58.79 270.745 58.79 270.459C58.79 270.316 58.79 270.173 58.79 270.173Z" fill="#455A64"/>
<path d="M125.874 287.623C125.874 287.623 125.73 288.052 125.444 288.767C125.158 289.626 124.872 290.627 124.443 291.914C123.585 294.775 122.441 298.78 121.01 303.643C118.007 313.512 113.859 327.244 108.566 342.119C103.274 356.995 98.1247 370.44 94.2628 380.024C92.2603 384.744 90.6868 388.606 89.5426 391.323C88.9704 392.611 88.5413 393.612 88.2553 394.47C87.9692 395.185 87.8262 395.615 87.8262 395.615C87.8262 395.615 87.9692 395.328 88.3983 394.613C88.8274 393.898 89.2565 392.897 89.8287 391.61C90.9729 389.035 92.6894 385.173 94.6918 380.31C98.6968 370.726 103.989 357.424 109.281 342.549C114.574 327.673 118.722 313.941 121.439 303.929C122.87 298.923 123.871 294.918 124.586 292.057C124.872 290.77 125.158 289.626 125.444 288.767C125.874 287.909 126.017 287.623 125.874 287.623Z" fill="#455A64"/>
<path d="M51.3516 231.554C51.3516 231.554 52.3528 231.697 54.0692 231.697C55.7856 231.84 58.3603 231.84 61.5071 231.983C67.8006 232.126 76.5257 232.412 86.1091 232.412C95.6924 232.412 104.418 232.269 110.711 232.126C113.858 231.983 116.433 231.983 118.149 231.84C119.865 231.697 120.867 231.697 120.867 231.697C120.867 231.697 119.865 231.697 118.149 231.697C116.289 231.697 113.715 231.697 110.711 231.84C104.418 231.983 95.6924 231.983 86.1091 231.983C76.5257 231.983 67.8006 231.84 61.5071 231.697C58.5033 231.697 55.9287 231.554 54.0692 231.554C52.3528 231.554 51.3516 231.554 51.3516 231.554Z" fill="#455A64"/>
</svg>
