<svg width="20" height="20" viewBox="0 0 20 20" fill="none" xmlns="http://www.w3.org/2000/svg">
<path fill-rule="evenodd" clip-rule="evenodd" d="M8.01864 0.649827C8.5931 0.228012 9.28719 0.000549316 9.99989 0.000549316C10.7126 0.000549316 11.4067 0.228012 11.9811 0.649827L13.1411 1.49983C13.3324 1.64108 13.5536 1.73233 13.7886 1.76858L15.2111 1.98733C15.9152 2.09529 16.5665 2.42502 17.0703 2.92859C17.5741 3.43215 17.9041 4.08329 18.0124 4.78733L18.2311 6.20983C18.2674 6.44358 18.3586 6.66608 18.4999 6.85733L19.3499 8.01733C19.7717 8.59179 19.9992 9.28588 19.9992 9.99858C19.9992 10.7113 19.7717 11.4054 19.3499 11.9798L18.4999 13.1398C18.3595 13.3309 18.2673 13.553 18.2311 13.7873L18.0124 15.2098C17.9044 15.9141 17.5744 16.5655 17.0706 17.0693C16.5668 17.5731 15.9154 17.903 15.2111 18.0111L13.7886 18.2298C13.5543 18.266 13.3322 18.3582 13.1411 18.4986L11.9811 19.3486C11.4067 19.7704 10.7126 19.9979 9.99989 19.9979C9.28719 19.9979 8.5931 19.7704 8.01864 19.3486L6.85864 18.4986C6.66756 18.3582 6.44545 18.266 6.21114 18.2298L4.78739 18.0123C4.08353 17.9041 3.43253 17.5743 2.92898 17.0707C2.42543 16.5672 2.09559 15.9162 1.98739 15.2123L1.76864 13.7898C1.73244 13.5555 1.64025 13.3334 1.49989 13.1423L0.649888 11.9823C0.228073 11.4079 0.000610352 10.7138 0.000610352 10.0011C0.000610352 9.28838 0.228073 8.59429 0.649888 8.01983L1.49989 6.85983C1.64064 6.66897 1.73287 6.44676 1.76864 6.21233L1.98739 4.78733C2.09559 4.08347 2.42543 3.43247 2.92898 2.92892C3.43253 2.42537 4.08353 2.09553 4.78739 1.98733L6.20989 1.76858C6.44364 1.73233 6.66614 1.64108 6.85739 1.49983L8.01739 0.649827H8.01864ZM10.8711 2.16108C10.6185 1.97565 10.3133 1.87567 9.99989 1.87567C9.6865 1.87567 9.38128 1.97565 9.12864 2.16108L7.96864 3.01108C7.53347 3.33081 7.02741 3.54053 6.49364 3.62233L5.07364 3.83983C4.76335 3.88713 4.47629 4.03235 4.25435 4.25429C4.03241 4.47623 3.88719 4.76329 3.83989 5.07358L3.62239 6.49483C3.54059 7.0286 3.33088 7.53466 3.01114 7.96983L2.16114 9.12858C1.77989 9.64733 1.77989 10.3536 2.16114 10.8711L3.01114 12.0311C3.33114 12.4661 3.53989 12.9711 3.62239 13.5061L3.83989 14.9261C3.93739 15.5636 4.43739 16.0623 5.07364 16.1598L6.49489 16.3773C7.02864 16.4598 7.53364 16.6686 7.96989 16.9886L9.12864 17.8386C9.64739 18.2198 10.3536 18.2198 10.8711 17.8386L12.0311 16.9886C12.4663 16.6688 12.9724 16.4591 13.5061 16.3773L14.9261 16.1598C15.5636 16.0623 16.0624 15.5623 16.1599 14.9261L16.3774 13.5048C16.4599 12.9711 16.6686 12.4661 16.9886 12.0298L17.8386 10.8711C18.2199 10.3523 18.2199 9.64608 17.8386 9.12858L16.9886 7.96858C16.6689 7.53341 16.4592 7.02735 16.3774 6.49358L16.1599 5.07358C16.1126 4.76329 15.9674 4.47623 15.7454 4.25429C15.5235 4.03235 15.2364 3.88713 14.9261 3.83983L13.5049 3.62233C12.9711 3.54053 12.4651 3.33081 12.0299 3.01108L10.8711 2.16108ZM11.2499 13.7498C11.2499 14.0813 11.1182 14.3993 10.8838 14.6337C10.6494 14.8681 10.3314 14.9998 9.99989 14.9998C9.66837 14.9998 9.35042 14.8681 9.116 14.6337C8.88158 14.3993 8.74989 14.0813 8.74989 13.7498C8.74989 13.4183 8.88158 13.1004 9.116 12.8659C9.35042 12.6315 9.66837 12.4998 9.99989 12.4998C10.3314 12.4998 10.6494 12.6315 10.8838 12.8659C11.1182 13.1004 11.2499 13.4183 11.2499 13.7498ZM8.64989 7.60608C8.75114 7.40608 8.88739 7.23233 9.07489 7.10858C9.25614 6.98733 9.53864 6.87483 9.99989 6.87483C10.3499 6.87483 10.6911 6.98358 10.9224 7.15608C11.0275 7.22936 11.1125 7.32783 11.1698 7.44247C11.227 7.55712 11.2545 7.68428 11.2499 7.81233C11.2499 8.03358 11.1999 8.14233 11.1536 8.20983C11.0593 8.33347 10.9416 8.4375 10.8074 8.51608C10.7124 8.57983 10.6099 8.64108 10.4849 8.71733L10.4761 8.72233C10.3599 8.79233 10.2211 8.87483 10.0849 8.96608C9.74435 9.18106 9.45024 9.46199 9.21989 9.79233C9.08522 9.99922 9.03759 10.2509 9.08734 10.4927C9.13708 10.7345 9.28018 10.9469 9.48557 11.0838C9.69097 11.2207 9.94208 11.2711 10.1844 11.224C10.4267 11.177 10.6407 11.0362 10.7799 10.8323C10.8739 10.7088 10.9911 10.6048 11.1249 10.5261C11.2316 10.4568 11.34 10.3901 11.4499 10.3261L11.4574 10.3211C11.5736 10.2498 11.7124 10.1673 11.8486 10.0773C12.1261 9.89108 12.4574 9.63358 12.7136 9.24983C12.9811 8.84983 13.1249 8.37233 13.1249 7.81233C13.1249 6.86233 12.6749 6.12733 12.0474 5.65608C11.4522 5.22481 10.7349 4.99489 9.99989 4.99983C9.21114 4.99983 8.55739 5.19983 8.03489 5.54733C7.51864 5.89233 7.18489 6.34483 6.97364 6.76858C6.86486 6.99076 6.84831 7.24692 6.92759 7.48125C7.00687 7.71558 7.17555 7.90908 7.39688 8.01958C7.61821 8.13008 7.87424 8.14862 8.10918 8.07117C8.34412 7.99371 8.53892 7.82654 8.65114 7.60608H8.64989Z" fill="#FF1C1C"/>
</svg>
