<svg width="100" height="100" viewBox="0 0 100 100" fill="none" xmlns="http://www.w3.org/2000/svg">
<path d="M50 5C55.9095 5 61.7611 6.16396 67.2208 8.42542C72.6804 10.6869 77.6412 14.0016 81.8198 18.1802C85.9984 22.3588 89.3131 27.3196 91.5746 32.7792C93.836 38.2389 95 44.0905 95 50C95 55.9095 93.836 61.7611 91.5746 67.2208C89.3131 72.6804 85.9984 77.6412 81.8198 81.8198C77.6412 85.9984 72.6804 89.3131 67.2208 91.5746C61.7611 93.836 55.9095 95 50 95C38.0653 95 26.6193 90.2589 18.1802 81.8198C9.74106 73.3807 5 61.9347 5 50C5 38.0653 9.74106 26.6193 18.1802 18.1802C26.6193 9.74106 38.0653 5 50 5V5Z" stroke="#337BAE" stroke-width="10" stroke-linecap="round"/>
<path d="M50.002 80.0034C52.7634 80.0034 55.002 77.7648 55.002 75.0034C55.002 72.242 52.7634 70.0034 50.002 70.0034C47.2405 70.0034 45.002 72.242 45.002 75.0034C45.002 77.7648 47.2405 80.0034 50.002 80.0034Z" fill="#337BAE"/>
<path d="M35 40.0034C35 37.4466 35.6536 34.9322 36.8987 32.699C38.1438 30.4657 39.939 28.5879 42.114 27.2437C44.289 25.8994 46.7715 25.1335 49.3258 25.0186C51.88 24.9037 54.4213 25.4436 56.7082 26.587C58.9951 27.7305 60.9518 29.4395 62.3924 31.5519C63.833 33.6643 64.7098 36.1098 64.9394 38.6563C65.169 41.2029 64.7439 43.7658 63.7044 46.1018C62.6649 48.4378 61.0455 50.4693 59 52.0034C55.36 54.7384 52.5 55.0034 50 60.0034" stroke="#337BAE" stroke-width="10" stroke-linecap="round"/>
</svg>
