<svg width="100" height="100" viewBox="0 0 100 100" fill="none" xmlns="http://www.w3.org/2000/svg">
<path d="M50 -0.000976562C77.615 -0.000976562 100 22.389 100 49.999C100 77.609 77.615 99.999 50 99.999C22.385 99.999 0 77.609 0 49.999C0 22.389 22.385 -0.000976562 50 -0.000976562ZM50 8.33402C27.025 8.33402 8.335 27.024 8.335 49.999C8.335 72.974 27.025 91.664 50 91.664C72.975 91.664 91.665 72.974 91.665 49.999C91.665 27.024 72.975 8.33402 50 8.33402ZM49.995 62.509C51.3198 62.509 52.5903 63.0353 53.527 63.972C54.4637 64.9088 54.99 66.1793 54.99 67.504C54.99 68.8288 54.4637 70.0993 53.527 71.036C52.5903 71.9728 51.3198 72.499 49.995 72.499C48.6702 72.499 47.3997 71.9728 46.463 71.036C45.5263 70.0993 45 68.8288 45 67.504C45 66.1793 45.5263 64.9088 46.463 63.972C47.3997 63.0353 48.6702 62.509 49.995 62.509ZM49.97 24.999C50.8771 24.9979 51.7538 25.3255 52.4378 25.9212C53.1218 26.5169 53.5666 27.3404 53.69 28.239L53.725 28.744L53.745 51.254C53.746 52.2046 53.3859 53.12 52.7377 53.8152C52.0895 54.5105 51.2014 54.9336 50.2531 54.999C49.3048 55.0644 48.367 54.7673 47.6295 54.1677C46.8919 53.568 46.4096 52.7107 46.28 51.769L46.245 51.259L46.225 28.754C46.2243 28.2611 46.3209 27.773 46.509 27.3174C46.6972 26.8619 46.9733 26.4479 47.3216 26.0991C47.6699 25.7504 48.0835 25.4737 48.5388 25.285C48.9941 25.0962 49.4821 24.999 49.975 24.999H49.97Z" fill="#337BAE"/>
</svg>
