<svg width="20" height="20" viewBox="0 0 20 20" fill="none" xmlns="http://www.w3.org/2000/svg">
<path fill-rule="evenodd" clip-rule="evenodd" d="M11.9811 0.649827C11.4067 0.228012 10.7126 0.000549316 9.99989 0.000549316C9.28719 0.000549316 8.5931 0.228012 8.01864 0.649827L6.85864 1.49983C6.66759 1.64023 6.44546 1.73243 6.21114 1.76858L4.78739 1.98733C4.08353 2.09553 3.43253 2.42537 2.92898 2.92892C2.42543 3.43247 2.09559 4.08347 1.98739 4.78733L1.76864 6.21233C1.73249 6.44665 1.64029 6.66878 1.49989 6.85983L0.649888 8.01983C0.228073 8.59429 0.000610352 9.28838 0.000610352 10.0011C0.000610352 10.7138 0.228073 11.4079 0.649888 11.9823L1.49989 13.1423C1.64114 13.3336 1.73239 13.5548 1.76864 13.7898L1.98739 15.2123C2.09559 15.9162 2.42543 16.5672 2.92898 17.0707C3.43253 17.5743 4.08353 17.9041 4.78739 18.0123L6.20989 18.2311C6.44364 18.2673 6.66614 18.3586 6.85739 18.4998L8.01739 19.3498C8.59185 19.7716 9.28594 19.9991 9.99864 19.9991C10.7113 19.9991 11.4054 19.7716 11.9799 19.3498L13.1399 18.4998C13.3307 18.3591 13.553 18.2668 13.7874 18.2311L15.2099 18.0123C15.9141 17.9043 16.5656 17.5744 17.0694 17.0706C17.5732 16.5668 17.9031 15.9153 18.0111 15.2111L18.2299 13.7886C18.2661 13.5548 18.3574 13.3323 18.4986 13.1411L19.3486 11.9811C19.7705 11.4066 19.9979 10.7125 19.9979 9.99983C19.9979 9.28713 19.7705 8.59304 19.3486 8.01858L18.4986 6.85858C18.3583 6.6675 18.2661 6.44538 18.2299 6.21108L18.0124 4.78733C17.9042 4.08347 17.5743 3.43247 17.0708 2.92892C16.5672 2.42537 15.9162 2.09553 15.2124 1.98733L13.7899 1.76858C13.5556 1.73238 13.3335 1.64019 13.1424 1.49983L11.9811 0.649827ZM9.12864 2.15983C9.64739 1.77858 10.3536 1.77858 10.8711 2.15983L12.0311 3.00983C12.4661 3.32983 12.9711 3.53858 13.5061 3.62108L14.9261 3.83858C15.5636 3.93608 16.0624 4.43608 16.1599 5.07233L16.3774 6.49358C16.4599 7.02733 16.6686 7.53233 16.9886 7.96858L17.8386 9.12733C18.2199 9.64608 18.2199 10.3523 17.8386 10.8698L16.9886 12.0298C16.6689 12.465 16.4592 12.9711 16.3774 13.5048L16.1599 14.9248C16.1126 15.2351 15.9674 15.5222 15.7454 15.7441C15.5235 15.9661 15.2364 16.1113 14.9261 16.1586L13.5049 16.3761C12.9711 16.4579 12.4651 16.6676 12.0299 16.9873L10.8711 17.8373C10.3524 18.2186 9.64614 18.2186 9.12864 17.8373L7.96864 16.9873C7.53347 16.6676 7.02741 16.4579 6.49364 16.3761L5.07364 16.1586C4.76335 16.1113 4.4763 15.9661 4.25435 15.7441C4.03241 15.5222 3.88719 15.2351 3.83989 14.9248L3.62239 13.5036C3.54059 12.9698 3.33088 12.4637 3.01114 12.0286L2.16114 10.8698C1.97571 10.6172 1.87573 10.312 1.87573 9.99858C1.87573 9.68519 1.97571 9.37997 2.16114 9.12733L3.01114 7.96733C3.33114 7.53233 3.53989 7.02733 3.62239 6.49233L3.83989 5.07233C3.93739 4.43483 4.43739 3.93608 5.07364 3.83858L6.49489 3.62108C7.02866 3.53928 7.53472 3.32956 7.96989 3.00983L9.12864 2.15983ZM14.0999 8.47483C14.2655 8.29711 14.3556 8.06205 14.3514 7.81917C14.3471 7.5763 14.2487 7.34456 14.0769 7.1728C13.9051 7.00103 13.6734 6.90264 13.4305 6.89836C13.1877 6.89407 12.9526 6.98423 12.7749 7.14983L8.74989 11.1748L7.22489 9.64983C7.04717 9.48423 6.81211 9.39407 6.56923 9.39836C6.32636 9.40264 6.09463 9.50103 5.92286 9.6728C5.75109 9.84456 5.6527 10.0763 5.64842 10.3192C5.64413 10.562 5.73429 10.7971 5.89989 10.9748L8.08739 13.1623C8.26317 13.3379 8.50145 13.4365 8.74989 13.4365C8.99833 13.4365 9.23661 13.3379 9.41239 13.1623L14.0999 8.47483Z" fill="#337BAE"/>
</svg>
